<svg id="visual" viewBox="0 0 600 900" width="600" height="900" xmlns="http://www.w3.org/2000/svg" xmlns:xlink="http://www.w3.org/1999/xlink" version="1.1"><path d="M453 900L451.5 889.3C450 878.7 447 857.3 446.7 835.8C446.3 814.3 448.7 792.7 449.8 771.2C451 749.7 451 728.3 451.7 707C452.3 685.7 453.7 664.3 452.7 643C451.7 621.7 448.3 600.3 447.2 578.8C446 557.3 447 535.7 447.7 514.2C448.3 492.7 448.7 471.3 454 450C459.3 428.7 469.7 407.3 469.8 385.8C470 364.3 460 342.7 455.5 321.2C451 299.7 452 278.3 454 257C456 235.7 459 214.3 457.8 193C456.7 171.7 451.3 150.3 455.2 128.8C459 107.3 472 85.7 476.3 64.2C480.7 42.7 476.3 21.3 474.2 10.7L472 0L600 0L600 10.7C600 21.3 600 42.7 600 64.2C600 85.7 600 107.3 600 128.8C600 150.3 600 171.7 600 193C600 214.3 600 235.7 600 257C600 278.3 600 299.7 600 321.2C600 342.7 600 364.3 600 385.8C600 407.3 600 428.7 600 450C600 471.3 600 492.7 600 514.2C600 535.7 600 557.3 600 578.8C600 600.3 600 621.7 600 643C600 664.3 600 685.7 600 707C600 728.3 600 749.7 600 771.2C600 792.7 600 814.3 600 835.8C600 857.3 600 878.7 600 889.3L600 900Z" fill="#1d2671"></path><path d="M477 900L477.2 889.3C477.3 878.7 477.7 857.3 478.8 835.8C480 814.3 482 792.7 483.3 771.2C484.7 749.7 485.3 728.3 484.7 707C484 685.7 482 664.3 482 643C482 621.7 484 600.3 488.7 578.8C493.3 557.3 500.7 535.7 502 514.2C503.3 492.7 498.7 471.3 494.7 450C490.7 428.7 487.3 407.3 487.5 385.8C487.7 364.3 491.3 342.7 491.7 321.2C492 299.7 489 278.3 486.7 257C484.3 235.7 482.7 214.3 481.5 193C480.3 171.7 479.7 150.3 483.7 128.8C487.7 107.3 496.3 85.7 499 64.2C501.7 42.7 498.3 21.3 496.7 10.7L495 0L600 0L600 10.7C600 21.3 600 42.7 600 64.2C600 85.7 600 107.3 600 128.8C600 150.3 600 171.7 600 193C600 214.3 600 235.7 600 257C600 278.3 600 299.7 600 321.2C600 342.7 600 364.3 600 385.8C600 407.3 600 428.7 600 450C600 471.3 600 492.7 600 514.2C600 535.7 600 557.3 600 578.8C600 600.3 600 621.7 600 643C600 664.3 600 685.7 600 707C600 728.3 600 749.7 600 771.2C600 792.7 600 814.3 600 835.8C600 857.3 600 878.7 600 889.3L600 900Z" fill="#4e2676"></path><path d="M505 900L508.5 889.3C512 878.7 519 857.3 518.3 835.8C517.7 814.3 509.3 792.7 507.8 771.2C506.3 749.7 511.7 728.3 513.5 707C515.3 685.7 513.7 664.3 514.5 643C515.3 621.7 518.7 600.3 515.3 578.8C512 557.3 502 535.7 499.5 514.2C497 492.7 502 471.3 507.2 450C512.3 428.7 517.7 407.3 519.5 385.8C521.3 364.3 519.7 342.7 517.8 321.2C516 299.7 514 278.3 513.3 257C512.7 235.7 513.3 214.3 512.5 193C511.7 171.7 509.3 150.3 507.8 128.8C506.3 107.3 505.7 85.7 505.2 64.2C504.7 42.7 504.3 21.3 504.2 10.7L504 0L600 0L600 10.7C600 21.3 600 42.7 600 64.2C600 85.7 600 107.3 600 128.8C600 150.3 600 171.7 600 193C600 214.3 600 235.7 600 257C600 278.3 600 299.7 600 321.2C600 342.7 600 364.3 600 385.8C600 407.3 600 428.7 600 450C600 471.3 600 492.7 600 514.2C600 535.7 600 557.3 600 578.8C600 600.3 600 621.7 600 643C600 664.3 600 685.7 600 707C600 728.3 600 749.7 600 771.2C600 792.7 600 814.3 600 835.8C600 857.3 600 878.7 600 889.3L600 900Z" fill="#722676"></path><path d="M532 900L529.7 889.3C527.3 878.7 522.7 857.3 523.7 835.8C524.7 814.3 531.3 792.7 534.3 771.2C537.3 749.7 536.7 728.3 534.8 707C533 685.7 530 664.3 530 643C530 621.7 533 600.3 534.7 578.8C536.3 557.3 536.7 535.7 536.7 514.2C536.7 492.7 536.3 471.3 536.5 450C536.7 428.7 537.3 407.3 535.5 385.8C533.7 364.3 529.3 342.7 527 321.2C524.7 299.7 524.3 278.3 523.7 257C523 235.7 522 214.3 522.2 193C522.3 171.7 523.7 150.3 528 128.8C532.3 107.3 539.7 85.7 543.3 64.2C547 42.7 547 21.3 547 10.7L547 0L600 0L600 10.7C600 21.3 600 42.7 600 64.2C600 85.7 600 107.3 600 128.8C600 150.3 600 171.7 600 193C600 214.3 600 235.7 600 257C600 278.3 600 299.7 600 321.2C600 342.7 600 364.3 600 385.8C600 407.3 600 428.7 600 450C600 471.3 600 492.7 600 514.2C600 535.7 600 557.3 600 578.8C600 600.3 600 621.7 600 643C600 664.3 600 685.7 600 707C600 728.3 600 749.7 600 771.2C600 792.7 600 814.3 600 835.8C600 857.3 600 878.7 600 889.3L600 900Z" fill="#912773"></path><path d="M552 900L554.7 889.3C557.3 878.7 562.7 857.3 561.5 835.8C560.3 814.3 552.7 792.7 551.8 771.2C551 749.7 557 728.3 556.5 707C556 685.7 549 664.3 547.2 643C545.3 621.7 548.7 600.3 551.2 578.8C553.7 557.3 555.3 535.7 554.8 514.2C554.3 492.7 551.7 471.3 550.7 450C549.7 428.7 550.3 407.3 553 385.8C555.7 364.3 560.3 342.7 558.5 321.2C556.7 299.7 548.3 278.3 545.5 257C542.7 235.7 545.3 214.3 545.7 193C546 171.7 544 150.3 546 128.8C548 107.3 554 85.7 556.8 64.2C559.7 42.7 559.3 21.3 559.2 10.7L559 0L600 0L600 10.7C600 21.3 600 42.7 600 64.2C600 85.7 600 107.3 600 128.8C600 150.3 600 171.7 600 193C600 214.3 600 235.7 600 257C600 278.3 600 299.7 600 321.2C600 342.7 600 364.3 600 385.8C600 407.3 600 428.7 600 450C600 471.3 600 492.7 600 514.2C600 535.7 600 557.3 600 578.8C600 600.3 600 621.7 600 643C600 664.3 600 685.7 600 707C600 728.3 600 749.7 600 771.2C600 792.7 600 814.3 600 835.8C600 857.3 600 878.7 600 889.3L600 900Z" fill="#ac2c6d"></path><path d="M567 900L568.2 889.3C569.3 878.7 571.7 857.3 573.2 835.8C574.7 814.3 575.3 792.7 574.3 771.2C573.3 749.7 570.7 728.3 568.8 707C567 685.7 566 664.3 569.2 643C572.3 621.7 579.7 600.3 582.3 578.8C585 557.3 583 535.7 583 514.2C583 492.7 585 471.3 584.5 450C584 428.7 581 407.3 580 385.8C579 364.3 580 342.7 578.8 321.2C577.7 299.7 574.3 278.3 574.5 257C574.7 235.7 578.3 214.3 577.8 193C577.3 171.7 572.7 150.3 569.3 128.8C566 107.3 564 85.7 565 64.2C566 42.7 570 21.3 572 10.7L574 0L600 0L600 10.7C600 21.3 600 42.7 600 64.2C600 85.7 600 107.3 600 128.8C600 150.3 600 171.7 600 193C600 214.3 600 235.7 600 257C600 278.3 600 299.7 600 321.2C600 342.7 600 364.3 600 385.8C600 407.3 600 428.7 600 450C600 471.3 600 492.7 600 514.2C600 535.7 600 557.3 600 578.8C600 600.3 600 621.7 600 643C600 664.3 600 685.7 600 707C600 728.3 600 749.7 600 771.2C600 792.7 600 814.3 600 835.8C600 857.3 600 878.7 600 889.3L600 900Z" fill="#c33764"></path></svg>