<?xml version="1.0" encoding="UTF-8" standalone="no"?>
<!-- Created with Inkscape (http://www.inkscape.org/) -->

<svg
   width="11in"
   height="8.5in"
   viewBox="0 0 279.4 215.9"
   version="1.1"
   id="svg5"
   inkscape:export-filename="/home/franz/Dropbox/IT/GA/CS-Flex/lessons/course/project2/hold-my-spot/static/assets/queue.png"
   inkscape:export-xdpi="8.7830067"
   inkscape:export-ydpi="8.7830067"
   inkscape:version="1.1.1 (3bf5ae0d25, 2021-09-20)"
   sodipodi:docname="queue.svg"
   xmlns:inkscape="http://www.inkscape.org/namespaces/inkscape"
   xmlns:sodipodi="http://sodipodi.sourceforge.net/DTD/sodipodi-0.dtd"
   xmlns="http://www.w3.org/2000/svg"
   xmlns:svg="http://www.w3.org/2000/svg">
  <sodipodi:namedview
     id="namedview7"
     pagecolor="#505050"
     bordercolor="#eeeeee"
     borderopacity="1"
     inkscape:pageshadow="0"
     inkscape:pageopacity="0"
     inkscape:pagecheckerboard="0"
     inkscape:document-units="mm"
     showgrid="false"
     inkscape:zoom="6.9040128"
     inkscape:cx="197.27657"
     inkscape:cy="259.48677"
     inkscape:window-width="1472"
     inkscape:window-height="954"
     inkscape:window-x="2761"
     inkscape:window-y="41"
     inkscape:window-maximized="0"
     inkscape:current-layer="layer1"
     units="in"
     inkscape:snap-bbox="false" />
  <defs
     id="defs2">
    <clipPath
       clipPathUnits="userSpaceOnUse"
       id="clipPath930">
      <path
         d="M 0,500 H 500 V 0 H 0 Z"
         id="path928" />
    </clipPath>
    <clipPath
       clipPathUnits="userSpaceOnUse"
       id="clipPath958">
      <path
         d="M 0,500 H 500 V 0 H 0 Z"
         id="path956" />
    </clipPath>
    <clipPath
       clipPathUnits="userSpaceOnUse"
       id="clipPath974">
      <path
         d="M 0,500 H 500 V 0 H 0 Z"
         id="path972" />
    </clipPath>
    <clipPath
       clipPathUnits="userSpaceOnUse"
       id="clipPath998">
      <path
         d="M 0,500 H 500 V 0 H 0 Z"
         id="path996" />
    </clipPath>
    <clipPath
       clipPathUnits="userSpaceOnUse"
       id="clipPath1078">
      <path
         d="m 428.527,158.862 h 12.512 v -28.603 h -12.512 z"
         id="path1076" />
    </clipPath>
    <clipPath
       clipPathUnits="userSpaceOnUse"
       id="clipPath1098">
      <path
         d="M 0,500 H 500 V 0 H 0 Z"
         id="path1096" />
    </clipPath>
    <clipPath
       clipPathUnits="userSpaceOnUse"
       id="clipPath1200">
      <path
         d="M 0,500 H 500 V 0 H 0 Z"
         id="path1198" />
    </clipPath>
    <clipPath
       clipPathUnits="userSpaceOnUse"
       id="clipPath1232">
      <path
         d="m 250.12,272.945 h 15.277 V 224.436 H 250.12 Z"
         id="path1230" />
    </clipPath>
    <clipPath
       clipPathUnits="userSpaceOnUse"
       id="clipPath1316">
      <path
         d="M 0,500 H 500 V 0 H 0 Z"
         id="path1314" />
    </clipPath>
    <clipPath
       clipPathUnits="userSpaceOnUse"
       id="clipPath1434">
      <path
         d="M 0,500 H 500 V 0 H 0 Z"
         id="path1432" />
    </clipPath>
    <clipPath
       clipPathUnits="userSpaceOnUse"
       id="clipPath1446">
      <path
         d="m 101.674,374.069 h 32.689 V 338.91 h -32.689 z"
         id="path1444" />
    </clipPath>
    <clipPath
       clipPathUnits="userSpaceOnUse"
       id="clipPath1538">
      <path
         d="m 79.073,412.371 h 32.998 V 366.729 H 79.073 Z"
         id="path1536" />
    </clipPath>
    <clipPath
       clipPathUnits="userSpaceOnUse"
       id="clipPath1566">
      <path
         d="M 0,500 H 500 V 0 H 0 Z"
         id="path1564" />
    </clipPath>
    <clipPath
       clipPathUnits="userSpaceOnUse"
       id="clipPath1586">
      <path
         d="M 53.6384,329.435 H 165.283 V 256.328 H 53.6384 Z"
         id="path1584" />
    </clipPath>
    <clipPath
       clipPathUnits="userSpaceOnUse"
       id="clipPath1614">
      <path
         d="M 164.908,265.357 H 276.552 V 192.251 H 164.908 Z"
         id="path1612" />
    </clipPath>
  </defs>
  <g
     inkscape:label="Layer 1"
     inkscape:groupmode="layer"
     id="layer1">
    <g
       id="g932"
       transform="matrix(0.47232204,0,0,-0.4748279,358.75701,-4.7004766)">
      <path
         d="m 0,0 c 19.044,-10.995 19.044,-28.821 0,-39.816 -19.044,-10.996 -49.92,-10.996 -68.964,0 -19.044,10.994 -19.044,28.821 0,39.816 C -49.92,10.995 -19.044,10.995 0,0"
         style="fill:#ececec;fill-opacity:1;fill-rule:nonzero;stroke:none"
         id="path934" />
    </g>
    <g
       id="g936"
       transform="matrix(0.56861693,0,0,-0.93109229,199.69217,-29.333537)">
      <path
         d="m -18.556384,-165.82932 c 18.10999961,-10.456 150.288304,-61.60228 103.368646,-88.30605 -48.014606,-27.32694 -251.872852,26.14585 -337.842792,66.00874 -53.29136,30.76337 -74.46089,60.44414 -51.84869,76.72885 29.01614,23.314578 185.11553,-4.69327 216.98427,-30.72105"
         style="fill:#999999;fill-opacity:1;fill-rule:nonzero;stroke:none"
         id="path938"
         sodipodi:nodetypes="csccc" />
    </g>
    <g
       id="g940"
       transform="matrix(0.47232204,0,0,-0.4748279,245.34323,-69.44337)">
      <path
         d="m 0,0 c 18.11,-10.456 18.11,-27.408 0,-37.864 -18.11,-10.456 -47.473,-10.456 -65.583,0 C -83.692,-27.408 -83.692,-10.456 -65.582,0 -47.472,10.456 -18.11,10.456 0,0"
         style="fill:#ececec;fill-opacity:1;fill-rule:nonzero;stroke:none"
         id="path942" />
    </g>
    <g
       id="g944"
       transform="matrix(0.47232204,0,0,-0.4748279,280.34277,-48.879238)">
      <path
         d="m 0,0 c 18.109,-10.456 18.109,-27.408 -0.001,-37.864 -18.109,-10.456 -47.472,-10.456 -65.582,0 -18.11,10.455 -18.11,27.408 0,37.864 C -47.473,10.456 -18.11,10.456 0,0"
         style="fill:#ececec;fill-opacity:1;fill-rule:nonzero;stroke:none"
         id="path946" />
    </g>
    <g
       id="g948"
       transform="matrix(0.47232204,0,0,-0.4748279,315.92421,-26.939711)">
      <path
         d="m 0,0 c 18.109,-10.456 18.109,-27.408 0,-37.864 -18.11,-10.456 -47.473,-10.456 -65.583,0 -18.109,10.456 -18.109,27.408 0,37.864 C -47.473,10.456 -18.11,10.456 0,0"
         style="fill:#ececec;fill-opacity:1;fill-rule:nonzero;stroke:none"
         id="path950" />
    </g>
    <g
       id="g992"
       transform="matrix(0.47232204,0,0,-0.4748279,11.954703,221.52392)"
       inkscape:export-filename="/home/franz/Dropbox/IT/GA/CS-Flex/lessons/course/project2/hold-my-spot/static/assets/queue.png"
       inkscape:export-xdpi="10.734786"
       inkscape:export-ydpi="10.734786">
      <g
         id="g994"
         clip-path="url(#clipPath998)">
        <g
           id="g1000"
           transform="translate(437.127,242.0054)">
          <path
             d="m 0,0 c 4.795,1.133 7.902,-2.905 10.989,-10.434 3.088,-7.529 8.591,-25.87 9.875,-30.9 0.574,-2.254 -13.693,-22.425 -13.082,-22.126 0.189,0.092 -5.571,9.727 -5.571,9.727 l 7.003,13.399 -4.986,12.184 z"
             style="fill:#ffaaa8;fill-opacity:1;fill-rule:nonzero;stroke:none"
             id="path1002" />
        </g>
        <g
           id="g1004"
           transform="translate(443.9375,72.0498)">
          <path
             d="m 0,0 c 0.649,-0.246 0.814,-1.484 0.912,-3.944 0.075,-1.863 0.474,-5.113 -1.707,-5.762 -2.181,-0.649 -5.376,-0.317 -6.774,1.438 -1.744,2.19 -2.923,4.119 -5.413,6.791 -2.161,2.319 -4.497,4.483 -5.369,7.735 -0.787,2.938 -0.13,4.213 1.873,5.067 C -13.721,12.5 -9.39,8.662 -7.229,8.057 -5.369,7.537 -0.649,0.246 0,0"
             style="fill:#1a2e35;fill-opacity:1;fill-rule:nonzero;stroke:none"
             id="path1006" />
        </g>
        <g
           id="g1008"
           transform="translate(443.9375,76.0308)">
          <path
             d="m 0,0 v -4.724 c 0,0 -3.142,-2.414 -7.635,-0.206 C -7.767,-4.639 -8.149,0 -8.149,0 Z"
             style="fill:#ffaaa8;fill-opacity:1;fill-rule:nonzero;stroke:none"
             id="path1010" />
        </g>
        <g
           id="g1012"
           transform="translate(421.4561,55.9951)">
          <path
             d="m 0,0 c 0,0 0.867,-2.628 1.334,-4.925 0.371,-1.827 0.903,-4.88 0.264,-6.254 -0.64,-1.374 -3.135,-2.26 -7.003,-2.231 -2.506,0.019 -6.41,-1.682 -9.083,-3.174 -2.761,-1.541 -5.757,-1.546 -8.677,-1.203 -3.441,0.404 -7.007,2.4 -7.564,3.825 -0.556,1.425 0.16,2.11 8.27,5.566 0.074,0.032 8.553,3.861 12.477,8.191 z"
             style="fill:#1a2e35;fill-opacity:1;fill-rule:nonzero;stroke:none"
             id="path1014" />
        </g>
        <g
           id="g1016"
           transform="translate(421.4561,59.2612)">
          <path
             d="m 0,0 c 0,0 -0.012,-2.242 0,-3.523 0.011,-1.282 -1.502,-3.191 -5.419,-3.051 -2.752,0.098 -4.672,0.838 -4.563,3.103 v 3.266 z"
             style="fill:#ffaaa8;fill-opacity:1;fill-rule:nonzero;stroke:none"
             id="path1018" />
        </g>
        <g
           id="g1020"
           transform="translate(449.0332,110.9097)">
          <path
             d="m 0,0 c -0.255,9.965 -2.305,14.337 -2.305,14.337 0,0 0.763,12.309 2.419,27.378 2.521,22.942 1.361,27.389 -3.165,37.711 0,0 -38.618,3.913 -39.796,-12.135 -1.467,-19.987 -1.641,-55.43 -1.111,-62.49 0.53,-7.061 0.523,-5.747 2.238,-20.039 1.357,-11.304 4.16,-36.615 4.16,-36.615 5.125,-2.771 9.983,0.205 9.983,0.205 0,0 3.157,32.136 2.826,40.282 -0.405,9.948 -0.969,12.48 -0.969,12.48 0,0 4.516,29.39 5.214,34.575 0,0 0.629,-9.279 1.159,-16.34 0.531,-7.06 0.487,-9.934 1.974,-24.538 1.167,-11.455 3.993,-30.976 3.993,-30.976 4.567,-1.928 8.422,0.62 8.422,0.62 0,0 5.164,27.482 4.958,35.545"
             style="fill:#00dfbf;fill-opacity:1;fill-rule:nonzero;stroke:none"
             id="path1022" />
        </g>
        <g
           id="g1024"
           transform="translate(417.3477,247.2012)">
          <path
             d="m 0,0 1.814,-14.922 13.12,1.185 -1.499,16.563 z"
             style="fill:#ffaaa8;fill-opacity:1;fill-rule:nonzero;stroke:none"
             id="path1026" />
        </g>
        <g
           id="g1028"
           transform="translate(445.0771,234.7866)">
          <path
             d="m 0,0 c -1.442,3.926 -4.746,8.038 -9.79,7.101 -1.314,-0.244 -2.469,-0.436 -3.706,-0.684 -0.114,-3.438 -6.591,-5.218 -13.049,-3.132 -1.941,-0.557 -3.718,-1.123 -5.332,-1.7 -4.617,-1.649 -6.474,-9.32 -6.575,-22.152 -0.102,-12.832 -1.468,-44.838 -1.468,-44.838 l 5.399,-1.698 2.523,9.362 1.016,-11.214 c 5.844,-1.472 11.979,-1.366 18.644,0.09 13.876,3.032 18.195,10.519 18.195,10.519 0,0 -2.86,12.886 -11.049,25.528 C 1.763,-14.318 2.14,-5.825 0,0"
             style="fill:#2b454e;fill-opacity:1;fill-rule:nonzero;stroke:none"
             id="path1030" />
        </g>
        <g
           id="g1032"
           transform="translate(407.5996,266.1567)">
          <path
             d="m 0,0 c 0,0 -2.75,5.223 0.987,11.092 4.406,6.916 12.896,8.095 22.957,5.397 C 28.931,15.152 35.905,9.853 36.53,0.286 37.013,-7.092 16.435,-12.535 16.904,-17.589 Z"
             style="fill:#1a2e35;fill-opacity:1;fill-rule:nonzero;stroke:none"
             id="path1034" />
        </g>
        <g
           id="g1036"
           transform="translate(407.1562,263.3545)">
          <path
             d="m 0,0 c 0,0 -2.792,-4.478 -2.399,-4.933 0.392,-0.455 2.255,-0.901 2.255,-0.901 z"
             style="fill:#ff9090;fill-opacity:1;fill-rule:nonzero;stroke:none"
             id="path1038" />
        </g>
        <g
           id="g1040"
           transform="translate(415.6738,277.5352)">
          <path
             d="m 0,0 c -2.79,-1.538 -7.606,-4.371 -8.583,-14.826 -1.002,-10.733 1.479,-14.386 2.976,-15.749 1.01,-0.92 6.099,-1.126 8.726,-0.232 3.288,1.119 10.375,4.862 13.594,10.474 3.786,6.603 4.371,15.283 -0.293,18.554 C 9.856,2.825 2.361,1.302 0,0"
             style="fill:#ffaaa8;fill-opacity:1;fill-rule:nonzero;stroke:none"
             id="path1042" />
        </g>
        <g
           id="g1044"
           transform="translate(415.6602,276.272)">
          <path
             d="m 0,0 c -0.699,-1.982 -2.656,-6.653 -2.963,-12.323 0,0 -2.557,0 -3.772,0.616 0,0 -0.057,4.496 1.151,7.055 0,0 -1.679,-2.694 -2.199,-6.678 0,0 -2.265,0.168 -3.573,1.334 -0.973,4.812 2.036,14.735 10.545,16.31 z"
             style="fill:#1a2e35;fill-opacity:1;fill-rule:nonzero;stroke:none"
             id="path1046" />
        </g>
        <g
           id="g1048"
           transform="translate(414.8496,277.0659)">
          <path
             d="m 0,0 c 0,0 -2.202,-9.826 0.918,-15.915 0,0 1.627,3.856 4.931,2.852 3.325,-1.012 3.141,-5.414 0.609,-7.73 -2.534,-2.316 -5.081,-1.223 -5.081,-1.223 0,0 1.511,-4.14 4.908,-7.41 0,0 9.779,-4.36 18.247,5.197 7.684,8.673 6.255,23.8 -5.512,27.368 C 7.253,6.706 0,0 0,0"
             style="fill:#1a2e35;fill-opacity:1;fill-rule:nonzero;stroke:none"
             id="path1050" />
        </g>
        <g
           id="g1052"
           transform="translate(447.4053,254.9214)">
          <path
             d="m 0,0 c 2.321,-2.458 1.882,-6.643 -0.981,-9.345 -2.864,-2.703 -7.066,-2.901 -9.386,-0.443 -2.321,2.458 -1.882,6.642 0.981,9.345 C -6.522,2.26 -2.32,2.458 0,0"
             style="fill:#1a2e35;fill-opacity:1;fill-rule:nonzero;stroke:none"
             id="path1054" />
        </g>
        <g
           id="g1056"
           transform="translate(443.3896,259.2163)">
          <path
             d="m 0,0 c -1.212,-0.39 -1.879,-1.688 -1.489,-2.901 l 4.39,1.411 C 2.512,-0.278 1.213,0.39 0,0"
             style="fill:#1a2e35;fill-opacity:1;fill-rule:nonzero;stroke:none"
             id="path1058" />
        </g>
        <g
           id="g1060"
           transform="translate(379.9971,212.7349)">
          <path
             d="m 0,0 c -1.903,2.176 -2.22,6.98 -4.758,10.287 -2.478,3.229 -2.075,6.638 -3.667,5.155 -1.703,-1.586 -0.403,-6.903 -0.403,-6.903 0,0 -2.954,-5.481 -3.204,-8.287 -0.251,-2.805 7.173,-9.85 7.173,-9.85 z"
             style="fill:#ffaaa8;fill-opacity:1;fill-rule:nonzero;stroke:none"
             id="path1062" />
        </g>
        <g
           id="g1064"
           transform="translate(371.5723,221.6499)">
          <path
             d="m 0,0 c 0,0 -3.007,-4.203 -16.547,1.286 -3.74,1.516 -1.216,-6.523 3.37,-9.854 4.245,-3.083 9.559,-4.037 13.808,-6.914 C 0.641,-15.073 0,0 0,0"
             style="fill:#ffaaa8;fill-opacity:1;fill-rule:nonzero;stroke:none"
             id="path1066" />
        </g>
        <g
           id="g1068"
           transform="translate(414.3477,236.7676)">
          <path
             d="m 0,0 c -3.856,-1.343 -7.232,-2.896 -10.832,-9.66 -4.625,-8.693 -13.037,-25.72 -13.037,-25.72 l -10.482,11.347 c 0,0 -1.525,2.15 -4.362,-2.538 -2.838,-4.688 -1.584,-5.985 -1.584,-5.985 0,0 12.195,-16.335 14.435,-18.414 2.238,-2.079 5.916,-0.463 8.314,2.807 2.399,3.269 14.81,25.745 14.81,25.745 0,0 8.189,14.2 2.738,22.418"
             style="fill:#ffaaa8;fill-opacity:1;fill-rule:nonzero;stroke:none"
             id="path1070" />
        </g>
        <g
           id="g1072">
          <g
             id="g1074" />
          <g
             id="g1086">
            <g
               clip-path="url(#clipPath1078)"
               opacity="0.199997"
               id="g1084">
              <g
                 transform="translate(428.5273,146.5986)"
                 id="g1082">
                <path
                   d="m 0,0 0.731,7.806 c 0,0 5.669,0.548 11.781,4.457 0,0 -2.507,-4.019 -9.393,-5.85 L 1.565,-1.192 1.159,-16.34 Z"
                   style="fill:#000000;fill-opacity:1;fill-rule:nonzero;stroke:none"
                   id="path1080" />
              </g>
            </g>
          </g>
        </g>
        <g
           id="g1088"
           transform="translate(406.4531,205.3618)">
          <path
             d="M 0,0 C 0,0 4.85,8.485 5.156,8.988 L -0.392,-12.543 Z"
             style="fill:#1a2e35;fill-opacity:1;fill-rule:nonzero;stroke:none"
             id="path1090" />
        </g>
      </g>
    </g>
    <g
       id="g1092"
       transform="matrix(0.47232204,0,0,-0.4748279,11.954703,221.52392)"
       inkscape:export-filename="/home/franz/Dropbox/IT/GA/CS-Flex/lessons/course/project2/hold-my-spot/static/assets/queue.png"
       inkscape:export-xdpi="10.734786"
       inkscape:export-ydpi="10.734786">
      <g
         id="g1094"
         clip-path="url(#clipPath1098)">
        <g
           id="g1100"
           transform="translate(348.8975,256.2876)">
          <path
             d="m 0,0 c 1.42,-1.485 4.793,-2.636 26.615,-4.226 3.186,-0.232 6.349,0.026 9.367,1.228 2.917,1.162 5.504,3.18 7.261,5.79 0.397,0.59 0.758,1.219 0.919,1.91 0.16,0.692 0.102,1.461 -0.293,2.051 -0.39,0.585 -1.057,0.93 -1.735,1.117 -1.432,0.396 -2.75,0.079 -4.095,-0.439 -2.019,-0.778 -3.554,-1.049 -3.404,-0.642 0.149,0.407 1.368,0.782 2.621,2.194 1.196,1.349 1.567,3.385 0.758,3.997 -0.81,0.612 -0.668,0.48 -2.115,-0.715 C 34.452,11.069 32.8,10.457 30.897,8.611 29.222,6.986 28.502,6.345 26.481,5.543 24.289,4.674 22.225,4.932 16.143,5.904 10.89,6.744 8.877,7.042 6.354,8.445 3.643,12.566 -2.894,29.968 -5.734,34.742 c -3.004,5.047 -9.104,5.203 -9.104,5.203 0,0 -0.161,-9.058 3.08,-18.283 C -9.657,15.684 -1.409,1.475 0,0"
             style="fill:#c76668;fill-opacity:1;fill-rule:nonzero;stroke:none"
             id="path1102" />
        </g>
        <g
           id="g1104"
           transform="translate(332.4062,296.7461)">
          <path
             d="m 0,0 c 0,0 4.01,0.795 7.315,-1.288 3.307,-2.082 5.464,-5.933 7.563,-10.749 2.555,-5.862 5.638,-13.694 5.638,-13.694 0,0 -3.835,-4.275 -11.003,-4.983 l -9.852,16.363 z"
             style="fill:#375a64;fill-opacity:1;fill-rule:nonzero;stroke:none"
             id="path1106" />
        </g>
        <path
           d="m 309.122,108.972 h 8.5 v 14.55 h -8.5 z"
           style="fill:#c76668;fill-opacity:1;fill-rule:nonzero;stroke:none"
           id="path1108" />
        <g
           id="g1110"
           transform="translate(332.6416,119.8589)">
          <path
             d="M 0,0 8.495,-0.292 8.92,15.106 0,15.398 Z"
             style="fill:#c76668;fill-opacity:1;fill-rule:nonzero;stroke:none"
             id="path1112" />
        </g>
        <g
           id="g1114"
           transform="translate(305.502,232.1704)">
          <path
             d="m 0,0 c 0,-8.116 1.435,-55.326 1.435,-55.326 -0.199,-2.336 -2.447,-6.488 -2.622,-14.901 -0.253,-12.199 4.444,-45.696 4.444,-45.696 0,0 4.126,-2.411 9.463,-0.187 0,0 3.855,45.407 5.379,57.482 1.329,10.539 3.584,39.169 3.584,39.169 l 4.002,-34.405 c 0,0 -1.568,-6.285 -1.054,-13.508 0.397,-5.585 1.971,-40.17 1.971,-40.17 0,0 4.001,-2.715 9.814,-0.751 0,0 5.994,49.305 6.093,54.429 0.112,5.843 -2.222,65.484 -2.222,65.484 z"
             style="fill:#2b454e;fill-opacity:1;fill-rule:nonzero;stroke:none"
             id="path1116" />
        </g>
        <g
           id="g1118"
           transform="translate(311.0859,291.8789)">
          <path
             d="m 0,0 c -1.869,-0.835 -3.346,-2.358 -4.096,-4.263 -0.668,-1.697 -1.245,-4.102 -1.245,-7.346 v -16.653 l -0.243,-31.446 c 12.199,-6.431 27.709,-6.861 40.724,2.644 0,0 -0.727,40.477 -0.727,47.097 0,0.3 -0.007,0.603 -0.022,0.909 C 33.917,0.399 24.606,6.889 15.437,4.53 L 7.733,2.548 Z"
             style="fill:#f0f0f0;fill-opacity:1;fill-rule:nonzero;stroke:none"
             id="path1120" />
        </g>
        <g
           id="g1122"
           transform="translate(321.2285,322.8545)">
          <path
             d="m 0,0 c 0,-6.451 5.23,-11.681 11.682,-11.681 6.451,0 11.68,5.23 11.68,11.681 0,6.451 -5.229,11.681 -11.68,11.681 C 5.23,11.681 0,6.451 0,0"
             style="fill:#1a2e35;fill-opacity:1;fill-rule:nonzero;stroke:none"
             id="path1124" />
        </g>
        <g
           id="g1126"
           transform="translate(312.7178,314.5493)">
          <path
             d="m 0,0 c 0,0 1.893,-8.893 2.652,-10.354 0.759,-1.461 2.327,-1.877 2.327,-1.877 l -0.131,6.256 z"
             style="fill:#1a2e35;fill-opacity:1;fill-rule:nonzero;stroke:none"
             id="path1128" />
        </g>
        <g
           id="g1130"
           transform="translate(315.0937,327.2891)">
          <path
             d="m 0,0 c 0,0 -2.039,0.349 -3.628,-1.276 -1.558,-1.593 -0.687,-6.58 1.252,-11.464 l 3.565,-0.409 z"
             style="fill:#1a2e35;fill-opacity:1;fill-rule:nonzero;stroke:none"
             id="path1132" />
        </g>
        <g
           id="g1134"
           transform="translate(317.3525,314.1367)">
          <path
             d="m 0,0 c -0.715,-0.427 -1.734,0.946 -2.616,1.869 -0.882,0.923 -3.76,2.183 -5.196,-0.842 -1.463,-3.084 1.267,-7.157 3.534,-7.868 3.904,-1.226 4.491,1.279 4.491,1.279 l 0.288,-14.517 c 4.855,-6.225 18.329,-5.699 12.715,0.803 l -0.011,4.287 c 0,0 3.538,-0.537 5.265,-0.27 2.871,0.444 4.678,2.71 5.55,5.818 1.399,4.993 1.93,9.025 0.743,18.845 C 23.462,20.167 10.942,20.279 4.183,16.024 -2.577,11.769 0,0 0,0"
             style="fill:#c76668;fill-opacity:1;fill-rule:nonzero;stroke:none"
             id="path1136" />
        </g>
        <g
           id="g1138"
           transform="translate(317.3525,312.9341)">
          <path
             d="m 0,0 c -0.359,-0.007 -1.727,2.262 -2.616,3.072 -1.234,1.122 0.357,11.283 0.357,11.283 0,0 -1.184,2.525 1.19,5.139 1.689,1.86 3.527,3.034 8.399,3.294 2.853,0.152 7.414,-0.295 9.977,-0.469 4.809,-0.325 6.586,0.86 9.347,1.635 2.114,0.593 2.354,-7.04 -2.985,-9.568 0,0 -1.738,-1.121 -6.313,-1.678 -4.575,-0.557 -11.7,0.107 -12.673,0.24 C 3.355,13.13 3.072,11.844 2.357,8.332 1.729,5.249 1.209,0.023 0,0"
             style="fill:#1a2e35;fill-opacity:1;fill-rule:nonzero;stroke:none"
             id="path1140" />
        </g>
        <g
           id="g1142"
           transform="translate(315.1006,326.499)">
          <path
             d="m 0,0 -4.322,2.32 c 0.613,1.239 2.078,1.723 3.271,1.083 C 0.144,2.762 0.613,1.238 0,0"
             style="fill:#1a2e35;fill-opacity:1;fill-rule:nonzero;stroke:none"
             id="path1144" />
        </g>
        <g
           id="g1146"
           transform="translate(330.5576,299.1479)">
          <path
             d="m 0,0 c 0,0 -6.41,1.291 -8.652,2.483 -1.5,0.797 -2.736,2.179 -3.098,3.065 0,0 0.42,-1.902 1.76,-3.615 C -8.351,-0.163 0,-1.706 0,-1.706 Z"
             style="fill:#b0494c;fill-opacity:1;fill-rule:nonzero;stroke:none"
             id="path1148" />
        </g>
        <g
           id="g1150"
           transform="translate(330.2441,315.7397)">
          <path
             d="m 0,0 c 0,-0.737 -0.575,-1.333 -1.284,-1.332 -0.71,0.002 -1.285,0.602 -1.285,1.339 0,0.737 0.575,1.333 1.285,1.331 C -0.575,1.336 0,0.737 0,0"
             style="fill:#1a2e35;fill-opacity:1;fill-rule:nonzero;stroke:none"
             id="path1152" />
        </g>
        <g
           id="g1154"
           transform="translate(328.8818,320.5898)">
          <path
             d="m 0,0 -2.748,-1.517 c -0.405,0.79 -0.118,1.769 0.641,2.188 C -1.349,1.09 -0.405,0.79 0,0"
             style="fill:#1a2e35;fill-opacity:1;fill-rule:nonzero;stroke:none"
             id="path1156" />
        </g>
        <g
           id="g1158"
           transform="translate(329.9775,306.8652)">
          <path
             d="M 0,0 2.933,-1.101 C 2.643,-1.941 1.75,-2.376 0.94,-2.072 0.13,-1.769 -0.291,-0.841 0,0"
             style="fill:#b0494c;fill-opacity:1;fill-rule:nonzero;stroke:none"
             id="path1160" />
        </g>
        <g
           id="g1162"
           transform="translate(341.3281,319.5205)">
          <path
             d="M 0,0 -2.506,1.93 C -1.995,2.648 -1.02,2.797 -0.328,2.264 0.364,1.731 0.511,0.717 0,0"
             style="fill:#1a2e35;fill-opacity:1;fill-rule:nonzero;stroke:none"
             id="path1164" />
        </g>
        <g
           id="g1166"
           transform="translate(340.5566,316.1055)">
          <path
             d="m 0,0 c 0,-0.737 -0.575,-1.333 -1.285,-1.331 -0.709,0.002 -1.284,0.601 -1.284,1.338 0,0.737 0.575,1.333 1.284,1.331 C -0.575,1.336 0,0.737 0,0"
             style="fill:#1a2e35;fill-opacity:1;fill-rule:nonzero;stroke:none"
             id="path1168" />
        </g>
        <g
           id="g1170"
           transform="translate(334.0107,317.3237)">
          <path
             d="m 0,0 0.422,-7.726 4.034,1.375 z"
             style="fill:#b0494c;fill-opacity:1;fill-rule:nonzero;stroke:none"
             id="path1172" />
        </g>
        <g
           id="g1174"
           transform="translate(317.6221,113.168)">
          <path
             d="m 0,0 v 1.215 c 0.812,-0.354 2.702,-7.563 6.074,-10.639 2.682,-2.446 6.339,-5.27 7.269,-7.996 0.968,-2.835 -5.093,-4.401 -7.598,-3.957 -2.91,0.515 -7.954,2.565 -9.221,4.464 -1.266,1.899 -1.859,4.702 -2.888,6.095 -1.029,1.392 -3.401,2.946 -3.957,4.557 -0.306,0.886 0.057,2.824 0.487,4.462 0.394,1.503 0.821,3.155 1.334,3.014 10e-4,-0.183 0,-0.926 0,-0.926 0.617,-0.684 2.324,-1.363 4.249,-1.436 C -3.007,-1.195 0.01,-0.949 0,0"
             style="fill:#1a2e35;fill-opacity:1;fill-rule:nonzero;stroke:none"
             id="path1176" />
        </g>
        <g
           id="g1178"
           transform="translate(341.2266,122.1875)">
          <path
             d="m 0,0 c 0.441,-0.016 0.801,-0.638 1.774,-1.691 1.177,-1.274 3.101,-2.648 5,-3.598 3.183,-1.593 9.371,-4.044 12.17,-5.306 1.75,-0.788 1.668,-2.901 -0.14,-4.104 -1.809,-1.202 -6.175,-2.069 -11.417,-0.896 -2.856,0.638 -6.574,3.276 -8.927,3.134 -2.354,-0.143 -6.757,-0.108 -8.493,1.089 -1.738,1.197 -1.042,3.754 -0.551,5.951 0.535,2.398 1.205,6.138 1.999,5.974 v -0.827 c 1.023,-1.547 6.295,-2.177 8.54,-1.038 z"
             style="fill:#1a2e35;fill-opacity:1;fill-rule:nonzero;stroke:none"
             id="path1180" />
        </g>
        <g
           id="g1182"
           transform="translate(327.1846,212.7109)">
          <path
             d="m 0,0 c 0,0 6.793,1.914 11.836,6.787 0,0 -2.284,-4.277 -9.076,-8.256 l 0.906,-30.043 z"
             style="fill:#1a2e35;fill-opacity:1;fill-rule:nonzero;stroke:none"
             id="path1184" />
        </g>
        <g
           id="g1186"
           transform="translate(291.6631,249.6309)">
          <path
             d="m 0,0 c 5.451,31.899 11.034,41.596 20.165,41.93 2.821,-3.053 2.564,-12.708 -1.357,-18.754 0,0 -8.404,-20.271 -9.552,-27.385 -1.009,-6.251 -2.113,-14.106 -1.755,-19.418 0.063,-0.941 0.497,-1.817 1.169,-2.478 1.807,-1.772 1.888,-3.269 3.101,-5.269 0.949,-1.565 1.93,-2.119 1.676,-2.495 -0.325,-0.482 -1.395,-1.144 -2.807,-0.348 -0.71,0.401 -1.183,0.888 -2.238,1.943 0,0 0.397,-2.477 1.977,-5.613 2.142,-4.249 1.783,-6.488 -4.158,-5.232 -3.724,0.787 -6.183,3.733 -7.171,12.539 -0.285,2.537 -0.725,6.539 -0.583,9.771 C -1.164,-12.393 -0.858,-5.022 0,0"
             style="fill:#c76668;fill-opacity:1;fill-rule:nonzero;stroke:none"
             id="path1188" />
        </g>
        <g
           id="g1190"
           transform="translate(314.0586,292.8584)">
          <path
             d="m 0,0 c -2.781,-0.505 -9.913,-0.761 -13.564,-8.126 -2.406,-4.853 -4.821,-12.449 -7.414,-21.55 0,0 5.354,-5.543 13.242,-4.75 l 4.414,12.741 C 0.87,-16.268 1.907,-4.078 0,0"
             style="fill:#375a64;fill-opacity:1;fill-rule:nonzero;stroke:none"
             id="path1192" />
        </g>
      </g>
    </g>
    <g
       id="g1194"
       transform="matrix(0.47232204,0,0,-0.4748279,11.954703,221.52392)"
       inkscape:export-filename="/home/franz/Dropbox/IT/GA/CS-Flex/lessons/course/project2/hold-my-spot/static/assets/queue.png"
       inkscape:export-xdpi="10.734786"
       inkscape:export-ydpi="10.734786">
      <g
         id="g1196"
         clip-path="url(#clipPath1200)">
        <g
           id="g1202"
           transform="translate(263.4365,294.9565)">
          <path
             d="M 0,0 C -7.767,31.291 -16.646,38.556 -8.35,42.772 0.185,43.604 4.581,38.565 6.067,29.579 6.795,25.185 8.374,7.139 10.357,0.071 c 1.743,-6.21 4.083,-13.943 6.689,-18.7 0.461,-0.843 1.236,-1.467 2.141,-1.79 2.427,-0.866 3.143,-2.214 5.12,-3.543 1.547,-1.041 2.691,-1.134 2.618,-1.589 -0.095,-0.585 -0.801,-1.655 -2.446,-1.523 -0.829,0.066 -1.474,0.314 -2.9,0.838 0,0 1.426,-2.12 4.229,-4.342 3.798,-3.011 4.425,-5.235 -1.605,-6.616 -3.778,-0.867 -7.312,0.805 -11.994,8.521 -1.35,2.223 -3.468,5.734 -4.721,8.782 C 4.228,-11.954 1.25,-5.037 0,0"
             style="fill:#ffaaa8;fill-opacity:1;fill-rule:nonzero;stroke:none"
             id="path1204" />
        </g>
        <g
           id="g1206"
           transform="translate(236.6304,155.4502)">
          <path
             d="m 0,0 v 1.214 c 0.479,-1.424 2.7,-7.555 6.068,-10.627 2.679,-2.443 6.332,-5.264 7.261,-7.987 0.966,-2.832 -5.084,-3.784 -7.586,-3.341 -2.907,0.515 -6.668,2.164 -8.715,4.679 -1.44,1.769 -2.356,3.865 -3.384,5.256 -1.028,1.39 -3.397,2.943 -3.953,4.553 -0.305,0.884 0.058,2.82 0.486,4.457 0.394,1.501 0.821,3.151 1.333,3.01 10e-4,-0.183 0,-0.925 0,-0.925 0.616,-0.683 2.322,-1.361 4.244,-1.435 C -3.003,-1.194 0.01,-0.947 0,0"
             style="fill:#1a2e35;fill-opacity:1;fill-rule:nonzero;stroke:none"
             id="path1208" />
        </g>
        <g
           id="g1210"
           transform="translate(245.123,143.8882)">
          <path
             d="m 0,0 c -0.831,0.741 -1.667,1.465 -2.424,2.157 -2.354,2.147 -4.148,5.788 -5.178,8.272 -0.588,1.418 -0.891,2.932 -0.891,4.467 v 4.839 h -8.49 v -7.876 -10e-4 -0.21 l 0.043,-0.022 c 0.408,-1.764 4.304,-6.457 6.518,-9.517 1.484,-2.051 4.303,-4.661 7.672,-5.11 C 0.443,-3.428 2.075,-2.421 0,0"
             style="fill:#ffaaa8;fill-opacity:1;fill-rule:nonzero;stroke:none"
             id="path1212" />
        </g>
        <g
           id="g1214"
           transform="translate(269.7461,163.8198)">
          <path
             d="m 0,0 v 1.214 c 0.479,-1.424 2.7,-7.555 6.068,-10.628 2.678,-2.442 6.331,-5.264 7.261,-7.986 0.966,-2.833 -5.084,-3.784 -7.586,-3.341 -2.907,0.514 -6.668,2.164 -8.716,4.679 -1.439,1.769 -2.355,3.865 -3.383,5.255 -1.028,1.391 -3.397,2.944 -3.953,4.553 -0.305,0.884 0.057,2.821 0.487,4.457 0.393,1.501 0.819,3.152 1.332,3.011 0.002,-0.183 0,-0.925 0,-0.925 0.616,-0.684 2.322,-1.362 4.245,-1.435 C -3.003,-1.194 0.011,-0.948 0,0"
             style="fill:#1a2e35;fill-opacity:1;fill-rule:nonzero;stroke:none"
             id="path1216" />
        </g>
        <g
           id="g1218"
           transform="translate(278.2383,152.2573)">
          <path
             d="m 0,0 c -0.83,0.742 -1.666,1.466 -2.424,2.157 -2.353,2.147 -4.147,5.788 -5.178,8.272 -0.588,1.418 -0.89,2.932 -0.89,4.467 v 4.839 h -8.49 v -7.876 0 -10e-4 -0.21 l 0.043,-0.022 c 0.408,-1.764 4.304,-6.457 6.518,-9.517 1.483,-2.051 4.303,-4.661 7.672,-5.11 C 0.443,-3.428 2.075,-2.421 0,0"
             style="fill:#ffaaa8;fill-opacity:1;fill-rule:nonzero;stroke:none"
             id="path1220" />
        </g>
        <g
           id="g1222"
           transform="translate(229.8296,287.394)">
          <path
             d="m 0,0 c -6.582,-14.375 0.237,-65.016 0.237,-65.016 -0.197,-2.333 -2.864,-6.923 -3.859,-17.191 -1.173,-12.131 1.843,-42.592 1.843,-42.592 0,0 3.93,-2.571 8.58,-0.342 0,0 8.091,45.878 9.613,57.94 1.327,10.527 3.876,33.673 3.876,33.673 l 7.244,-33.616 c 0,0 -1.86,-5.897 -2.295,-10.39 -0.687,-7.095 6.187,-40.128 6.187,-40.128 0,0 2.93,-1.075 8.491,-0.256 0,0 2.431,43.837 3.072,52.384 1.076,14.354 -2.736,59.141 -5.369,67.638 z"
             style="fill:#00dfbf;fill-opacity:1;fill-rule:nonzero;stroke:none"
             id="path1224" />
        </g>
        <g
           id="g1226">
          <g
             id="g1228" />
          <g
             id="g1240">
            <g
               clip-path="url(#clipPath1232)"
               opacity="0.100006"
               id="g1238">
              <g
                 transform="translate(250.1196,253.8662)"
                 id="g1236">
                <path
                   d="m 0,0 2.137,13.352 c 0,0 9.04,1.873 13.141,5.727 0,0 -4.302,-5.35 -10.692,-7.103 L 2.187,1.696 6.382,-29.43 Z"
                   style="fill:#000000;fill-opacity:1;fill-rule:nonzero;stroke:none"
                   id="path1234" />
              </g>
            </g>
          </g>
        </g>
        <g
           id="g1242"
           transform="translate(241.4395,337.3369)">
          <path
             d="m 0,0 v 0 c -8.438,-0.581 -9.03,-4.656 -11.142,-9.113 -1.607,-3.393 -1.625,-7.327 -0.399,-10.876 L -5.66,-37 c 0,0 -3.831,-6.427 -5.95,-12.943 14.757,-8.236 33.183,-3.907 37.621,2.104 0.187,1.275 -0.953,11.241 -1.656,17.752 2.599,6.519 3.286,10.652 2.189,14.962 C 24.509,-7.126 16.606,0.668 13.11,0.384 Z"
             style="fill:#f5f5f5;fill-opacity:1;fill-rule:nonzero;stroke:none"
             id="path1244" />
        </g>
        <g
           id="g1246"
           transform="translate(251.4736,345.085)">
          <path
             d="m 0,0 -6.225,-0.026 c -8.668,-0.037 -15.726,6.96 -15.762,15.629 -0.045,10.387 8.34,18.844 18.727,18.888 C 7.128,34.536 15.585,26.151 15.629,15.763 15.666,7.095 8.668,0.037 0,0"
             style="fill:#1a2e35;fill-opacity:1;fill-rule:nonzero;stroke:none"
             id="path1248" />
        </g>
        <g
           id="g1250"
           transform="translate(243.3413,383.9966)">
          <path
             d="m 0,0 c 2.686,-3.954 -0.164,-6.656 -4.118,-9.342 -3.954,-2.685 -7.516,-4.339 -10.202,-0.384 -2.685,3.954 -1.208,8.367 2.746,11.053 C -7.619,4.012 -2.686,3.954 0,0"
             style="fill:#1a2e35;fill-opacity:1;fill-rule:nonzero;stroke:none"
             id="path1252" />
        </g>
        <g
           id="g1254"
           transform="translate(233.6621,371.7637)">
          <path
             d="M 0,0 -3.98,-2.943 C -4.846,-1.85 -4.656,-0.304 -3.557,0.508 -2.458,1.321 -0.865,1.094 0,0"
             style="fill:#1a2e35;fill-opacity:1;fill-rule:nonzero;stroke:none"
             id="path1256" />
        </g>
        <g
           id="g1258"
           transform="translate(259.8408,371.2007)">
          <path
             d="m 0,0 c 1.991,-1.166 4.468,-6.152 4.271,-16.627 -0.168,-8.879 -3.037,-11.085 -4.479,-11.723 -1.442,-0.638 -4.23,-0.266 -6.941,0.174 l 0.154,-5.392 c 0,0 4.568,-3.738 4.343,-6.182 -0.225,-2.445 -6.331,-3.575 -9.845,-1.203 -3.059,2.065 -5.693,4.783 -6.323,5.451 -0.095,0.101 -0.142,0.229 -0.142,0.367 l -0.011,13.445 c 0,0 -1.588,-1.556 -4.301,0.796 -2.241,1.942 -3.006,5.23 -1.275,7.003 1.732,1.773 4.949,1.306 6.192,-1.207 0,0 4.321,-0.139 10.061,3.046 C -2.556,-8.866 -0.368,-3.444 0,0"
             style="fill:#ffaaa8;fill-opacity:1;fill-rule:nonzero;stroke:none"
             id="path1260" />
        </g>
        <g
           id="g1262"
           transform="translate(254.1895,356.7612)">
          <path
             d="M 0,0 C 0.035,-0.64 -0.436,-1.184 -1.052,-1.216 -1.667,-1.248 -2.194,-0.755 -2.229,-0.115 -2.264,0.524 -1.794,1.068 -1.178,1.1 -0.562,1.132 -0.035,0.639 0,0"
             style="fill:#1a2e35;fill-opacity:1;fill-rule:nonzero;stroke:none"
             id="path1264" />
        </g>
        <g
           id="g1266"
           transform="translate(254.5195,349.2368)">
          <path
             d="M 0,0 2.597,-0.816 C 2.385,-1.559 1.632,-1.979 0.914,-1.753 0.197,-1.528 -0.212,-0.743 0,0"
             style="fill:#ff9090;fill-opacity:1;fill-rule:nonzero;stroke:none"
             id="path1268" />
        </g>
        <g
           id="g1270"
           transform="translate(263.3281,360.228)">
          <path
             d="m 0,0 -2.265,1.556 c 0.41,0.647 1.248,0.823 1.874,0.393 C 0.234,1.52 0.41,0.646 0,0"
             style="fill:#1a2e35;fill-opacity:1;fill-rule:nonzero;stroke:none"
             id="path1272" />
        </g>
        <g
           id="g1274"
           transform="translate(262.8193,357.605)">
          <path
             d="m 0,0 c 0.034,-0.64 -0.437,-1.184 -1.052,-1.216 -0.616,-0.032 -1.143,0.461 -1.177,1.101 -0.036,0.639 0.435,1.183 1.05,1.216 C -0.562,1.132 -0.035,0.64 0,0"
             style="fill:#1a2e35;fill-opacity:1;fill-rule:nonzero;stroke:none"
             id="path1276" />
        </g>
        <g
           id="g1278"
           transform="translate(257.791,358.7773)">
          <path
             d="m 0,0 -0.035,-7.275 3.532,1.11 z"
             style="fill:#ff9090;fill-opacity:1;fill-rule:nonzero;stroke:none"
             id="path1280" />
        </g>
        <g
           id="g1282"
           transform="translate(252.6914,343.0249)">
          <path
             d="m 0,0 c -2.856,0.362 -8.737,2.025 -9.663,4.343 0,0 0.311,-1.458 2.072,-2.955 1.761,-1.496 7.643,-3.185 7.643,-3.185 z"
             style="fill:#ff9090;fill-opacity:1;fill-rule:nonzero;stroke:none"
             id="path1284" />
        </g>
        <g
           id="g1286"
           transform="translate(245.2139,285.7983)">
          <path
             d="m 0,0 c -4.847,1.147 -7.922,6.051 -6.642,10.864 0.049,0.183 0.099,0.34 0.151,0.465 0.949,2.281 2.988,1.981 2.988,1.981 -1.913,1.268 -2.814,3.44 -3.262,5.69 l -2.221,10.469 c 0,0 -0.4,2.357 0.455,5.172 l -5.931,6.86 c 0,0 -0.426,-0.296 -1.096,-0.762 -0.924,-2.971 -0.785,-6.214 0.243,-9.189 l 5.88,-17.011 c 0,0 -3.631,-5.88 -5.949,-12.943 10.875,-6.07 23.737,-5.312 31.53,-2.089 C 9.99,-1.448 4.287,-1.015 0,0"
             style="fill:#e1e1e1;fill-opacity:1;fill-rule:nonzero;stroke:none"
             id="path1288" />
        </g>
        <g
           id="g1290"
           transform="translate(241.9893,260.6992)">
          <path
             d="m 0,0 -21.449,12.264 c 0,0 -10.44,-14.346 -3.332,-18.395 7.107,-4.05 14.16,-8.176 21.241,-12.264 C 4.477,-15.258 0,0 0,0"
             style="fill:#2b454e;fill-opacity:1;fill-rule:nonzero;stroke:none"
             id="path1292" />
        </g>
        <g
           id="g1294"
           transform="translate(238.4487,258.6553)">
          <path
             d="M 0,0 -16.794,9.714 V 8.787 L 0,-1.022 Z"
             style="fill:#00dfbf;fill-opacity:1;fill-rule:nonzero;stroke:none"
             id="path1296" />
        </g>
        <g
           id="g1298"
           transform="translate(241.9893,260.6992)">
          <path
             d="m 0,0 c -1.383,-4.504 -5.531,-17.246 -3.54,-18.395 1.991,-1.149 8.14,2.807 8.015,5.192 C 4.123,-6.468 0,0 0,0"
             style="fill:#375a64;fill-opacity:1;fill-rule:nonzero;stroke:none"
             id="path1300" />
        </g>
        <g
           id="g1302"
           transform="translate(236.0664,337.3789)">
          <path
             d="m 0,0 c 0,0 2.668,0.483 4.232,-2.488 3.431,-6.52 1.073,-73.839 1.073,-73.839 L 2.985,-75 c 0,0 0.806,21.706 0.729,41.46 -0.056,14.507 -0.597,28.213 -1.222,29.704 -1.324,3.153 -4.215,2.67 -4.215,2.67 C -1.382,-0.55 -0.789,-0.18 0,0"
             style="fill:#1a2e35;fill-opacity:1;fill-rule:nonzero;stroke:none"
             id="path1304" />
        </g>
        <g
           id="g1306"
           transform="translate(214.7261,294.9912)">
          <path
             d="m 0,0 c 6.561,26.818 11.658,38.33 18.832,41.007 2.328,0.869 4.832,-0.566 5.212,-3.022 0.681,-4.407 -0.554,-10.942 -3.738,-15.357 0,0 -9.574,-20.197 -11.101,-27.378 -1.337,-6.283 -2.851,-14.181 -2.767,-19.602 0.015,-0.974 0.395,-1.919 1.056,-2.634 1.757,-1.899 1.762,-3.427 2.897,-5.526 0.887,-1.641 1.857,-2.255 1.58,-2.623 -0.355,-0.475 -1.478,-1.094 -2.874,-0.213 -0.702,0.444 -1.159,0.964 -2.178,2.09 0,0 0.278,-2.541 1.727,-5.81 1.965,-4.431 1.487,-6.692 -4.494,-5.114 -3.748,0.989 -6.102,4.111 -6.663,13.119 -0.161,2.595 -0.406,6.689 -0.099,9.971 C -1.81,-12.549 -1.233,-5.041 0,0"
             style="fill:#ffaaa8;fill-opacity:1;fill-rule:nonzero;stroke:none"
             id="path1308" />
        </g>
      </g>
    </g>
    <g
       id="g1318"
       transform="matrix(0.47232204,0,0,-0.4748279,111.30306,63.395356)">
      <path
         d="m 0,0 c 0.599,5.857 0.599,8.338 0.419,9.068 -0.817,3.324 -3.138,5.987 -5.575,10.021 -4.193,6.941 -10.503,17.704 -13.41,21.845 -2.303,3.279 -4.783,5.203 -8.57,4.993 -2.648,-0.146 -0.597,-10.601 2.006,-18.132 L -11.18,8.549 c 0.457,-0.631 0.667,-1.407 0.591,-2.182 l -1.358,-13.719 4.447,-5.949 c 0,0 6.734,5.806 7.5,13.301"
         style="fill:#ffaaa8;fill-opacity:1;fill-rule:nonzero;stroke:none"
         id="path1320" />
    </g>
    <g
       id="g1322"
       transform="matrix(0.47232204,0,0,-0.4748279,111.34137,63.009321)">
      <path
         d="m 0,0 c -0.199,1.045 -0.901,1.897 -2.736,1.826 -1.821,-0.07 -3.255,-2.428 -3.255,-2.428 l 5.16,-2.293 c 0.271,0.683 0.529,1.374 0.75,2.082 v 10e-4 C -0.052,-0.532 -0.026,-0.266 0,0"
         style="fill:#ff9090;fill-opacity:1;fill-rule:nonzero;stroke:none"
         id="path1324" />
    </g>
    <g
       id="g1326"
       transform="matrix(0.47232204,0,0,-0.4748279,97.761401,41.51823)">
      <path
         d="m 0,0 c 0,0 5.727,0.726 8.911,-2.732 3.184,-3.458 4.73,-6.352 7.812,-11.465 3.712,-6.156 5.317,-9.323 5.317,-9.323 0,0 -5.803,-7.746 -14.354,-6.738 z"
         style="fill:#2b454e;fill-opacity:1;fill-rule:nonzero;stroke:none"
         id="path1328" />
    </g>
    <g
       id="g1330"
       transform="matrix(0.47232204,0,0,-0.4748279,92.889918,28.748873)">
      <path
         d="m 0,0 c 0,-6.543 5.305,-11.848 11.848,-11.848 6.543,0 11.848,5.305 11.848,11.848 0,6.543 -5.305,11.848 -11.848,11.848 C 5.305,11.848 0,6.543 0,0"
         style="fill:#1a2e35;fill-opacity:1;fill-rule:nonzero;stroke:none"
         id="path1332" />
    </g>
    <path
       d="m 85.085269,130.72306 h 3.942 v -6.78387 h -3.942 z"
       style="fill:#ffaaa8;fill-opacity:1;fill-rule:nonzero;stroke:none;stroke-width:0.473573"
       id="path1334" />
    <g
       id="g1336"
       transform="matrix(0.47232204,0,0,-0.4748279,98.751955,125.97663)">
      <path
         d="m 0,0 8.341,-0.287 0.417,15.12 -8.34,0.286 z"
         style="fill:#ffaaa8;fill-opacity:1;fill-rule:nonzero;stroke:none"
         id="path1338" />
    </g>
    <g
       id="g1340"
       transform="matrix(0.47232204,0,0,-0.4748279,85.344054,70.16512)"
       style="fill:#0084b5;fill-opacity:1">
      <path
         d="m 0,0 c 0,-7.969 -1.03,-56.263 -1.03,-56.263 -0.195,-2.293 -2.345,-6.521 -1.88,-15.328 0.633,-11.965 1.666,-43.068 1.666,-43.068 0,0 3.914,-3.879 9.439,0 0,0 7.556,43.026 9.052,54.883 1.305,10.347 3.519,38.459 3.519,38.459 l 4.629,-39.016 c 0,0 -1.361,-7.778 -1.66,-13.269 -0.299,-5.489 4.52,-33.353 4.52,-33.353 0,0 4.243,-2.932 9.081,-0.346 0,0 3.601,42.484 4.462,47.442 C 42.659,-54.9 39.034,0 39.034,0 Z"
         style="fill:#0084b5;fill-opacity:1;fill-rule:nonzero;stroke:none"
         id="path1342" />
    </g>
    <g
       id="g1344"
       transform="matrix(0.47232204,0,0,-0.4748279,89.130944,42.790864)"
       style="fill:#c7a168;fill-opacity:1">
      <path
         d="m 0,0 c -3.636,-0.646 -6.536,-3.401 -7.332,-7.008 -0.396,-1.791 -0.686,-3.926 -0.686,-6.336 v -16.352 -27.955 c 5.853,-6.367 26.255,-9.332 39.034,0 0,0 -0.251,39.135 -1.208,45.565 -1.662,11.169 -7.01,15.153 -12.38,14.737 L 4.546,0.808 Z"
         style="fill:#c7a168;fill-opacity:1;fill-rule:nonzero;stroke:none"
         id="path1346" />
    </g>
    <g
       id="g1348"
       transform="matrix(0.47232204,0,0,-0.4748279,88.812882,32.748776)">
      <path
         d="m 0,0 c 0,0 1.919,-9.02 2.689,-10.502 0.77,-1.482 2.361,-1.903 2.361,-1.903 L 4.916,-6.06 Z"
         style="fill:#1a2e35;fill-opacity:1;fill-rule:nonzero;stroke:none"
         id="path1350" />
    </g>
    <g
       id="g1352"
       transform="matrix(0.47232204,0,0,-0.4748279,89.9508,26.613097)">
      <path
         d="m 0,0 c 0,0 -2.068,0.354 -3.68,-1.294 -1.58,-1.616 -0.697,-6.674 1.271,-11.628 l 3.616,-0.415 z"
         style="fill:#1a2e35;fill-opacity:1;fill-rule:nonzero;stroke:none"
         id="path1354" />
    </g>
    <g
       id="g1356"
       transform="matrix(0.47232204,0,0,-0.4748279,91.033126,32.947207)">
      <path
         d="m 0,0 c -0.725,-0.433 -1.76,0.96 -2.654,1.896 -0.894,0.935 -3.814,2.214 -5.27,-0.855 -1.484,-3.127 1.286,-7.259 3.584,-7.98 3.961,-1.244 4.555,1.297 4.555,1.297 l 0.303,-14.287 c 0,0 2.593,-6.346 9.616,-7.298 7.023,-0.952 5.577,4.838 3.27,7.676 l -0.011,4.348 c 0,0 3.589,-0.545 5.34,-0.274 2.913,0.45 4.746,2.748 5.629,5.901 1.419,5.065 1.958,9.154 0.754,19.114 C 23.796,20.455 11.099,20.568 4.242,16.252 -2.615,11.937 0,0 0,0"
         style="fill:#ffaaa8;fill-opacity:1;fill-rule:nonzero;stroke:none"
         id="path1358" />
    </g>
    <g
       id="g1360"
       transform="matrix(0.47232204,0,0,-0.4748279,91.033126,33.526639)">
      <path
         d="m 0,0 c -0.365,-0.007 -1.751,2.294 -2.654,3.116 -1.251,1.138 0.362,11.444 0.362,11.444 0,0 -1.201,2.562 1.208,5.212 1.713,1.887 4.577,2.096 9.466,2.864 2.565,0.404 6.454,1.121 9.015,1.598 3.059,0.569 5.591,1.17 7.75,-0.706 1.682,-1.461 2.405,-4.042 1.5,-6.077 -0.212,-0.477 -0.519,-0.908 -0.869,-1.297 -0.619,-0.688 -1.32,-1.23 -2.201,-1.516 0,0 -1.334,-1.183 -5.973,-1.748 C 12.963,12.325 5.737,12.999 4.749,13.134 3.403,13.318 3.116,12.014 2.391,8.451 1.754,5.324 1.226,0.024 0,0"
         style="fill:#1a2e35;fill-opacity:1;fill-rule:nonzero;stroke:none"
         id="path1362" />
    </g>
    <g
       id="g1364"
       transform="matrix(0.47232204,0,0,-0.4748279,89.954248,26.993577)">
      <path
         d="M 0,0 -4.385,2.354 C -3.763,3.61 -2.276,4.101 -1.066,3.451 0.145,2.801 0.622,1.256 0,0"
         style="fill:#1a2e35;fill-opacity:1;fill-rule:nonzero;stroke:none"
         id="path1366" />
    </g>
    <g
       id="g1368"
       transform="matrix(0.47232204,0,0,-0.4748279,97.358982,40.16611)">
      <path
         d="m 0,0 c 0,0 -6.502,1.31 -8.775,2.518 -1.522,0.809 -2.775,2.211 -3.142,3.109 0,0 0.425,-1.929 1.785,-3.667 C -8.47,-0.165 0,-1.73 0,-1.73 Z"
         style="fill:#ff9090;fill-opacity:1;fill-rule:nonzero;stroke:none"
         id="path1370" />
    </g>
    <g
       id="g1372"
       transform="matrix(0.47232204,0,0,-0.4748279,96.620979,32.175421)">
      <path
         d="m 0,0 c 0,-0.748 -0.583,-1.352 -1.303,-1.35 -0.719,0.002 -1.303,0.609 -1.303,1.357 0,0.748 0.584,1.352 1.303,1.35 C -0.583,1.355 0,0.748 0,0"
         style="fill:#1a2e35;fill-opacity:1;fill-rule:nonzero;stroke:none"
         id="path1374" />
    </g>
    <g
       id="g1376"
       transform="matrix(0.47232204,0,0,-0.4748279,95.968277,29.839505)">
      <path
         d="m 0,0 -2.788,-1.538 c -0.411,0.801 -0.12,1.794 0.65,2.219 C -1.368,1.106 -0.411,0.801 0,0"
         style="fill:#1a2e35;fill-opacity:1;fill-rule:nonzero;stroke:none"
         id="path1378" />
    </g>
    <g
       id="g1380"
       transform="matrix(0.47232204,0,0,-0.4748279,97.081068,36.4493)">
      <path
         d="M 0,0 2.975,-1.116 C 2.68,-1.969 1.775,-2.41 0.954,-2.102 0.132,-1.793 -0.295,-0.853 0,0"
         style="fill:#ff9090;fill-opacity:1;fill-rule:nonzero;stroke:none"
         id="path1382" />
    </g>
    <g
       id="g1384"
       transform="matrix(0.47232204,0,0,-0.4748279,102.10917,30.354456)">
      <path
         d="m 0,0 -2.542,1.958 c 0.519,0.728 1.508,0.879 2.209,0.338 C 0.37,1.756 0.519,0.728 0,0"
         style="fill:#1a2e35;fill-opacity:1;fill-rule:nonzero;stroke:none"
         id="path1386" />
    </g>
    <g
       id="g1388"
       transform="matrix(0.47232204,0,0,-0.4748279,101.73949,31.999213)">
      <path
         d="m 0,0 c 0,-0.748 -0.583,-1.353 -1.303,-1.35 -0.719,0.002 -1.303,0.609 -1.303,1.357 0,0.748 0.584,1.352 1.303,1.35 C -0.583,1.355 0,0.748 0,0"
         style="fill:#1a2e35;fill-opacity:1;fill-rule:nonzero;stroke:none"
         id="path1390" />
    </g>
    <g
       id="g1392"
       transform="matrix(0.47232204,0,0,-0.4748279,98.604118,31.412373)">
      <path
         d="m 0,0 0.428,-7.836 4.091,1.395 z"
         style="fill:#ff9090;fill-opacity:1;fill-rule:nonzero;stroke:none"
         id="path1394" />
    </g>
    <g
       id="g1396"
       transform="matrix(0.47232204,0,0,-0.4748279,89.027127,128.76672)">
      <path
         d="m 0,0 v 1.194 c 0.798,-0.348 2.654,-7.426 5.965,-10.447 2.632,-2.401 6.223,-5.174 7.137,-7.851 0.95,-2.784 -5.001,-4.321 -7.46,-3.885 -2.858,0.506 -7.811,2.518 -9.054,4.383 -1.244,1.865 -1.826,4.617 -2.836,5.984 -1.01,1.367 -3.339,2.893 -3.885,4.475 -0.301,0.869 0.056,2.773 0.477,4.381 0.387,1.475 0.806,3.098 1.31,2.96 0.002,-0.18 0,-0.91 0,-0.91 0.606,-0.671 2.283,-1.338 4.173,-1.41 C -2.952,-1.173 0.01,-0.931 0,0"
         style="fill:#1a2e35;fill-opacity:1;fill-rule:nonzero;stroke:none"
         id="path1398" />
    </g>
    <g
       id="g1400"
       transform="matrix(0.47232204,0,0,-0.4748279,102.73325,124.89089)">
      <path
         d="m 0,0 c 0.433,-0.015 0.786,-0.626 1.742,-1.661 1.155,-1.25 3.045,-2.599 4.909,-3.532 3.125,-1.564 9.201,-3.971 11.95,-5.209 1.718,-0.774 1.638,-2.849 -0.138,-4.03 -1.776,-1.181 -6.063,-2.031 -11.21,-0.881 -2.804,0.628 -6.455,3.218 -8.765,3.078 -2.311,-0.14 -6.634,-0.106 -8.34,1.069 -1.705,1.176 -1.023,3.687 -0.541,5.844 0.526,2.354 1.279,5.957 2.059,5.796 L -8.36,-0.267 c 1.004,-1.519 6.111,-2.139 8.316,-1.021 z"
         style="fill:#1a2e35;fill-opacity:1;fill-rule:nonzero;stroke:none"
         id="path1402" />
    </g>
    <g
       id="g1404"
       transform="matrix(0.47232204,0,0,-0.4748279,95.152341,80.287216)"
       style="fill:#005cb5;fill-opacity:1">
      <path
         d="m 0,0 c 0,0 6.67,1.878 11.621,6.663 0,0 -2.242,-4.199 -8.911,-8.106 l 1.919,-37.573 z"
         style="fill:#005cb5;fill-opacity:1;fill-rule:nonzero;stroke:none"
         id="path1406" />
    </g>
    <g
       id="g1408"
       transform="matrix(0.47232204,0,0,-0.4748279,79.239859,76.122928)">
      <path
         d="m 0,0 c 0.369,-3.618 0.785,-8.501 1.504,-11.278 2.498,-9.641 5.702,-12.529 9.969,-12.814 6.81,-0.454 6.854,2.095 3.797,6.482 -2.257,3.238 -3.04,6.268 -3.04,6.268 1.341,-1.006 2.418,-1.776 3.271,-2.108 1.698,-0.662 2.784,0.244 3.069,0.832 0.222,0.458 -0.957,0.919 -2.262,2.511 -1.666,2.032 -2.519,3.649 -4.809,5.335 -0.854,0.628 -1.121,1.785 -1.38,2.813 -0.347,1.371 -0.584,23.23 0.65,27.755 l 5.858,21.022 c 4.765,3.271 9.841,19.451 2.597,22.891 C 12.422,68.944 7.466,60.052 0.053,32.593 -1.259,27.731 -0.762,7.478 0,0"
         style="fill:#ffaaa8;fill-opacity:1;fill-rule:nonzero;stroke:none"
         id="path1410" />
    </g>
    <g
       id="g1412"
       transform="matrix(0.47232204,0,0,-0.4748279,89.027599,42.832126)">
      <path
         d="m 0,0 c 0,0 2.75,-2.019 2.942,-6.6 0.193,-4.581 -1.955,-11.175 -3.255,-15.308 -1.3,-4.133 -4.002,-11.607 -4.002,-11.607 0,0 -11.19,1.284 -13.74,7.852 0,0 5.245,16.962 10.287,22.483 C -4.315,0.601 0,0 0,0"
         style="fill:#2b454e;fill-opacity:1;fill-rule:nonzero;stroke:none"
         id="path1414" />
    </g>
    <g
       id="g1416"
       transform="matrix(0.47232204,0,0,-0.4748279,110.64946,59.981818)">
      <path
         d="M 0,0 -0.883,0.762 -0.884,0.75 C -1.083,0.91 -1.393,0.96 -1.792,0.852 L -11.36,-1.75 c -0.887,-0.242 -1.849,-1.141 -2.15,-2.01 l -6.886,-19.865 c -0.16,-0.461 -0.096,-0.815 0.127,-1.015 l -0.008,-0.003 0.912,-0.785 -0.041,0.654 c 0.024,0.006 0.046,0.006 0.071,0.013 l 9.568,2.602 c 0.887,0.241 1.85,1.14 2.15,2.009 1.352,3.904 5.534,15.962 6.886,19.866 0.043,0.125 0.066,0.24 0.078,0.348 z"
         style="fill:#375a64;fill-opacity:1;fill-rule:nonzero;stroke:none"
         id="path1418" />
    </g>
    <g
       id="g1420"
       transform="matrix(0.47232204,0,0,-0.4748279,101.43437,71.562016)">
      <path
         d="m 0,0 6.886,19.866 c 0.301,0.868 1.263,1.767 2.15,2.009 l 9.568,2.602 c 0.886,0.241 1.361,-0.268 1.061,-1.136 C 18.313,19.437 14.131,7.38 12.779,3.475 12.479,2.607 11.516,1.707 10.629,1.466 L 1.061,-1.136 C 0.174,-1.377 -0.301,-0.869 0,0"
         style="fill:#1a2e35;fill-opacity:1;fill-rule:nonzero;stroke:none"
         id="path1422" />
    </g>
    <g
       id="g1424"
       transform="matrix(0.47232204,0,0,-0.4748279,109.39927,64.27939)">
      <path
         d="m 0,0 c -0.674,-2.024 -3.079,-3.375 -7.031,-4.311 -3.952,-0.936 -6.141,-5.132 -5.503,-6.41 0.639,-1.277 7.025,-2.463 9.579,-2.098 2.555,0.365 5.124,4.058 5.897,5.2 C 3.716,-6.476 4.617,1.504 3.796,2.599 2.975,3.693 1.25,3.525 1.25,3.525 Z"
         style="fill:#ffaaa8;fill-opacity:1;fill-rule:nonzero;stroke:none"
         id="path1426" />
    </g>
    <g
       id="g1568"
       transform="matrix(0.47232204,0,0,-0.4748279,63.949579,66.956057)"
       inkscape:export-filename="/home/franz/Dropbox/IT/GA/CS-Flex/lessons/course/project2/hold-my-spot/static/assets/queue.png"
       inkscape:export-xdpi="10.734786"
       inkscape:export-ydpi="10.734786">
      <path
         d="m 0,0 h -8.737 v -136.299 c 0,-0.645 0.427,-1.291 1.279,-1.783 1.707,-0.985 4.473,-0.985 6.179,0 0.853,0.492 1.279,1.138 1.279,1.783 z"
         style="fill:#2b454e;fill-opacity:1;fill-rule:nonzero;stroke:none"
         id="path1570" />
    </g>
    <g
       id="g1572"
       transform="matrix(0.47232204,0,0,-0.4748279,60.406225,67.942848)"
       inkscape:export-filename="/home/franz/Dropbox/IT/GA/CS-Flex/lessons/course/project2/hold-my-spot/static/assets/queue.png"
       inkscape:export-xdpi="10.734786"
       inkscape:export-ydpi="10.734786">
      <path
         d="m 0,0 c 1.706,-0.985 4.472,-0.985 6.178,0 1.706,0.985 1.706,2.582 0,3.566 C 4.472,4.551 1.706,4.551 0,3.566 -1.706,2.582 -1.706,0.985 0,0"
         style="fill:#375a64;fill-opacity:1;fill-rule:nonzero;stroke:none"
         id="path1574" />
    </g>
    <g
       id="g1576"
       transform="matrix(0.47232204,0,0,-0.4748279,63.12717,74.95928)"
       inkscape:export-filename="/home/franz/Dropbox/IT/GA/CS-Flex/lessons/course/project2/hold-my-spot/static/assets/queue.png"
       inkscape:export-xdpi="10.734786"
       inkscape:export-ydpi="10.734786">
      <path
         d="m 0,0 c 31.055,-29.459 68.608,-50.508 111.645,-64.458 v 8.649 C 68.608,-41.859 31.055,-20.811 0,8.649 Z"
         style="fill:#00dfbf;fill-opacity:1;fill-rule:nonzero;stroke:none"
         id="path1578" />
    </g>
    <g
       id="g1580"
       transform="matrix(0.47232204,0,0,-0.4748279,37.792666,227.27747)"
       style="fill:#ffff00;fill-opacity:1"
       inkscape:export-filename="/home/franz/Dropbox/IT/GA/CS-Flex/lessons/course/project2/hold-my-spot/static/assets/queue.png"
       inkscape:export-xdpi="10.734786"
       inkscape:export-ydpi="10.734786">
      <g
         id="g1582"
         style="fill:#ffff00;fill-opacity:1" />
      <g
         id="g1594"
         style="fill:#ffff00;fill-opacity:1">
        <g
           clip-path="url(#clipPath1586)"
           opacity="0.699997"
           id="g1592"
           style="fill:#ffff00;fill-opacity:1">
          <g
             transform="translate(53.6382,320.7861)"
             id="g1590"
             style="fill:#ffff00;fill-opacity:1">
            <path
               d="m 0,0 c 31.055,-29.459 68.608,-50.508 111.645,-64.458 v 8.649 C 68.608,-41.859 31.055,-20.811 0,8.649 Z"
               style="fill:#ffff00;fill-opacity:1;fill-rule:nonzero;stroke:none"
               id="path1588" />
          </g>
        </g>
      </g>
    </g>
    <g
       id="g1596"
       transform="matrix(0.47232204,0,0,-0.4748279,116.75197,97.766315)"
       inkscape:export-filename="/home/franz/Dropbox/IT/GA/CS-Flex/lessons/course/project2/hold-my-spot/static/assets/queue.png"
       inkscape:export-xdpi="10.734786"
       inkscape:export-ydpi="10.734786">
      <path
         d="m 0,0 h -8.737 v -136.298 c 0,-0.646 0.426,-1.291 1.279,-1.784 1.707,-0.985 4.473,-0.985 6.179,0 0.853,0.493 1.279,1.138 1.279,1.784 z"
         style="fill:#2b454e;fill-opacity:1;fill-rule:nonzero;stroke:none"
         id="path1598" />
    </g>
    <g
       id="g1600"
       transform="matrix(0.47232204,0,0,-0.4748279,113.23051,98.648409)"
       inkscape:export-filename="/home/franz/Dropbox/IT/GA/CS-Flex/lessons/course/project2/hold-my-spot/static/assets/queue.png"
       inkscape:export-xdpi="10.734786"
       inkscape:export-ydpi="10.734786">
      <path
         d="m 0,0 c 1.706,-0.985 4.472,-0.985 6.178,0 1.706,0.985 1.706,2.582 0,3.567 C 4.472,4.552 1.706,4.552 0,3.567 -1.706,2.582 -1.706,0.985 0,0"
         style="fill:#375a64;fill-opacity:1;fill-rule:nonzero;stroke:none"
         id="path1602" />
    </g>
    <g
       id="g1604"
       transform="matrix(0.47232204,0,0,-0.4748279,115.68244,105.38511)"
       inkscape:export-filename="/home/franz/Dropbox/IT/GA/CS-Flex/lessons/course/project2/hold-my-spot/static/assets/queue.png"
       inkscape:export-xdpi="10.734786"
       inkscape:export-ydpi="10.734786">
      <path
         d="m 0,0 c 31.055,-29.459 68.607,-50.508 111.645,-64.458 v 8.649 C 68.607,-41.859 31.055,-20.811 0,8.649 Z"
         style="fill:#00dfbf;fill-opacity:1;fill-rule:nonzero;stroke:none"
         id="path1606" />
    </g>
    <g
       id="g1608"
       transform="matrix(0.47232204,0,0,-0.4748279,37.792666,227.27747)"
       style="fill:#ffff00"
       inkscape:export-filename="/home/franz/Dropbox/IT/GA/CS-Flex/lessons/course/project2/hold-my-spot/static/assets/queue.png"
       inkscape:export-xdpi="10.734786"
       inkscape:export-ydpi="10.734786">
      <g
         id="g1610"
         style="fill:#ffff00" />
      <g
         id="g1622"
         style="fill:#ffff00">
        <g
           clip-path="url(#clipPath1614)"
           opacity="0.699997"
           id="g1620"
           style="fill:#ffff00">
          <g
             transform="translate(164.9082,256.7085)"
             id="g1618"
             style="fill:#ffff00">
            <path
               d="m 0,0 c 31.055,-29.459 68.607,-50.508 111.645,-64.458 v 8.649 C 68.607,-41.859 31.055,-20.811 0,8.649 Z"
               style="fill:#ffff00;fill-opacity:1;fill-rule:nonzero;stroke:none"
               id="path1616" />
          </g>
        </g>
      </g>
    </g>
    <g
       id="g1624"
       transform="matrix(0.47232204,0,0,-0.4748279,169.55399,128.57633)"
       inkscape:export-filename="/home/franz/Dropbox/IT/GA/CS-Flex/lessons/course/project2/hold-my-spot/static/assets/queue.png"
       inkscape:export-xdpi="10.734786"
       inkscape:export-ydpi="10.734786">
      <path
         d="m 0,0 h -8.736 v -136.299 c 0,-0.645 0.426,-1.291 1.279,-1.783 1.706,-0.985 4.472,-0.985 6.178,0 0.853,0.492 1.279,1.138 1.279,1.783 z"
         style="fill:#2b454e;fill-opacity:1;fill-rule:nonzero;stroke:none"
         id="path1626" />
    </g>
    <g
       id="g1628"
       transform="matrix(0.47232204,0,0,-0.4748279,166.03188,129.95245)"
       inkscape:export-filename="/home/franz/Dropbox/IT/GA/CS-Flex/lessons/course/project2/hold-my-spot/static/assets/queue.png"
       inkscape:export-xdpi="10.734786"
       inkscape:export-ydpi="10.734786">
      <path
         d="m 0,0 c 1.706,-0.985 4.472,-0.985 6.178,0 1.706,0.985 1.706,2.582 0,3.567 C 4.472,4.552 1.706,4.552 0,3.567 -1.706,2.582 -1.706,0.985 0,0"
         style="fill:#375a64;fill-opacity:1;fill-rule:nonzero;stroke:none"
         id="path1630" />
    </g>
  </g>
</svg>
