<?xml version="1.0" encoding="UTF-8" standalone="no"?>
<svg
   width="200mm"
   height="200mm"
   viewBox="0 0 566.92912 566.92913"
   version="1.2"
   id="svg433"
   sodipodi:docname="user-icon.svg"
   inkscape:version="1.1.1 (3bf5ae0d25, 2021-09-20)"
   xmlns:inkscape="http://www.inkscape.org/namespaces/inkscape"
   xmlns:sodipodi="http://sodipodi.sourceforge.net/DTD/sodipodi-0.dtd"
   xmlns="http://www.w3.org/2000/svg"
   xmlns:svg="http://www.w3.org/2000/svg">
  <sodipodi:namedview
     id="namedview435"
     pagecolor="#505050"
     bordercolor="#eeeeee"
     borderopacity="1"
     inkscape:pageshadow="0"
     inkscape:pageopacity="0"
     inkscape:pagecheckerboard="0"
     inkscape:document-units="px"
     showgrid="false"
     inkscape:zoom="0.79014148"
     inkscape:cx="391.702"
     inkscape:cy="396.76439"
     inkscape:window-width="1495"
     inkscape:window-height="978"
     inkscape:window-x="2548"
     inkscape:window-y="18"
     inkscape:window-maximized="0"
     inkscape:current-layer="svg433"
     units="mm"
     width="200mm" />
  <defs
     id="defs14">
    <clipPath
       id="clip1">
      <path
         d="m 21,614 h 38 v 36.19922 H 21 Z m 0,0"
         id="path2" />
    </clipPath>
    <clipPath
       id="clip2">
      <path
         d="m 461,362 h 65.51172 v 66 H 461 Z m 0,0"
         id="path5" />
    </clipPath>
    <clipPath
       id="clip3">
      <path
         d="m 461,359 h 65.51172 v 66 H 461 Z m 0,0"
         id="path8" />
    </clipPath>
    <clipPath
       id="clip4">
      <path
         d="m 461,356 h 65.51172 v 66 H 461 Z m 0,0"
         id="path11" />
    </clipPath>
  </defs>
  <path
     style="fill:#400a58;fill-opacity:1;fill-rule:nonzero;stroke:none;stroke-width:9.46402"
     d="m 294.11682,562.89647 c -1.14702,0 -2.335,0 -3.52299,0 -0.12291,0 -0.28672,0 -0.40963,0 -2.25308,0 -7.16889,-0.0666 -7.16889,-0.0666 0,0 -4.99776,0.0666 -7.25085,0.0666 -0.16391,0 -0.32771,0 -0.45062,0 -1.188,0 -2.33502,0 -3.523,0 -100.77434,0 -195.158103,-34.42991 -195.158103,-34.42991 -3.727833,0.4337 -7.332768,0.6672 -10.814805,0.6672 -39.859113,0 -64.1104969,-27.72406 -64.1104969,-27.72406 L 14.324709,422.77473 c 8.029174,-71.29526 88.525741,-83.5726 104.625051,-87.67616 16.05835,-4.10356 74.43373,-17.21495 82.4629,-31.96109 2.70371,-4.90427 2.90852,-14.24571 2.0073,-24.45458 -22.98146,-22.45283 -38.05664,-50.84416 -46.08583,-68.95989 -3.40011,1.93502 -6.22671,2.63563 -8.47979,2.63563 -5.69416,0 -8.1111,-4.27038 -8.1111,-4.27038 -37.27831,-44.23843 -14.13299,-62.25408 -9.09427,-65.52358 1.10605,-0.73399 2.25309,-1.03423 3.31818,-1.03423 3.68686,0 6.71828,3.46968 6.71828,3.46968 l 0.53254,1.26777 C 135.13098,28.198715 259.2145,20.225121 273.42942,19.691324 c -0.24578,0.06672 1.18799,0.133449 9.58586,0.333627 8.27495,-0.200178 9.7497,-0.266899 9.54488,-0.333627 14.50166,0.567157 138.13457,8.674201 131.04759,126.576616 l 0.49154,-1.26778 c 0,0 3.07238,-3.46968 6.75925,-3.46968 1.0651,0 2.21212,0.30029 3.31819,1.03423 4.99774,3.26951 28.18403,21.28516 -9.05331,65.52358 0,0 -2.4579,4.27038 -8.15207,4.27038 -2.25308,0 -5.07969,-0.7006 -8.4798,-2.63563 -8.07014,18.11575 -23.10436,46.50707 -46.08582,68.95991 -0.90126,10.20886 -0.69644,19.55031 2.00729,24.45456 8.02918,14.74615 66.36359,27.85753 82.46291,31.96109 16.09931,4.10357 96.59588,16.3809 104.62505,87.67616 l 12.61728,78.63497 c 0,0 -24.16944,27.72407 -64.02857,27.72407 -3.523,0 -7.12794,-0.23351 -10.85577,-0.6672 0,0 -94.3428,34.4299 -195.11714,34.4299"
     id="path154" />
  <path
     style="fill:#14007f;fill-opacity:1;fill-rule:nonzero;stroke:none;stroke-width:9.46402"
     d="m 76.632716,517.09705 c 0,0 96.595884,35.26396 198.681104,34.42991 1.92536,0 7.70146,-0.0666 7.70146,-0.0666 0,0 5.69415,0.0666 7.57855,0.0666 102.08521,0.83409 198.64013,-34.42991 198.64013,-34.42991 46.24968,5.73831 74.88434,-27.05683 74.88434,-27.05683 l -12.61727,-78.63496 c -8.02918,-71.29527 -88.52574,-83.5726 -104.62506,-87.67617 -16.05835,-4.10355 -74.43372,-17.21494 -82.4629,-31.96109 -2.7037,-4.90426 -2.90853,-14.2457 -2.0073,-24.45457 22.98147,-22.45284 38.01569,-50.84416 46.08582,-68.9599 11.83895,6.7392 16.63187,-1.63475 16.63187,-1.63475 37.23735,-44.23842 14.05105,-62.25407 9.05331,-65.52357 -5.03872,-3.26952 -10.07744,2.43544 -10.07744,2.43544 l -0.49153,1.26778 C 430.69473,16.996014 307.10278,8.88897 292.56016,8.3218132 c 0.20482,0.066724 -1.26993,0.1334489 -9.54488,0.3336271 C 274.61741,8.4552621 273.18364,8.3885424 273.42942,8.3218132 259.2145,8.8556101 135.13098,16.829204 142.21796,134.89843 l -0.53255,-1.26778 c 0,0 -4.99775,-5.70496 -10.03646,-2.43544 -5.03872,3.2695 -28.18405,21.28515 9.09427,65.52357 0,0 4.75195,8.37395 16.59089,1.63475 8.02918,18.11574 23.10436,46.50706 46.08583,68.9599 0.90125,10.20887 0.69645,19.55031 -2.0073,24.45457 -8.02918,14.74615 -66.40455,27.85754 -82.4629,31.96109 -16.09931,4.10357 -96.595878,16.3809 -104.625052,87.67617 L 1.7074141,490.04022 c 0,0 28.6756219,32.79514 74.9253019,27.05683"
     id="path292" />
  <path
     style="opacity:0.563304;fill:#dadada;fill-opacity:1;fill-rule:nonzero;stroke:none;stroke-width:9.46402"
     d="m 76.632716,510.47845 c 0,0 96.595884,35.26396 198.681104,34.42991 1.92536,0 7.70146,-0.0666 7.70146,-0.0666 0,0 5.69415,0.0666 7.57855,0.0666 102.08521,0.83408 198.64013,-34.42991 198.64013,-34.42991 46.24968,5.73832 74.88434,-27.05684 74.88434,-27.05684 l -12.61727,-78.63496 c -8.02918,-71.29526 -88.52574,-83.57259 -104.62506,-87.67615 -16.05835,-4.10356 -74.43372,-17.21495 -82.4629,-31.96109 -2.7037,-4.90427 -2.90853,-14.24572 -2.0073,-24.45458 22.98147,-22.45283 38.01569,-50.84416 46.08582,-68.95989 11.83895,6.73919 16.63187,-1.63475 16.63187,-1.63475 37.23735,-44.23844 14.05105,-62.25408 9.05331,-65.52358 -5.03872,-3.26951 -10.07744,2.43545 -10.07744,2.43545 l -0.49153,1.26776 C 430.69473,10.377418 307.10278,2.2703737 292.56016,1.7032169 c 0.20482,0.066724 -1.26993,0.133449 -9.54488,0.3336272 C 274.61741,1.8366659 273.18364,1.7699462 273.42942,1.7032169 259.2145,2.2370139 135.13098,10.210608 142.21796,128.27982 l -0.53255,-1.26776 c 0,0 -4.99775,-5.70496 -10.03646,-2.43545 -5.03872,3.2695 -28.18405,21.28514 9.09427,65.52358 0,0 4.75195,8.37394 16.59089,1.63475 8.02918,18.11573 23.10436,46.50706 46.08583,68.95989 0.90125,10.20886 0.69645,19.55031 -2.0073,24.45458 -8.02918,14.74614 -66.40455,27.85753 -82.4629,31.96109 -16.09931,4.10356 -96.595878,16.38089 -104.625052,87.67615 L 1.7074141,483.42161 c 0,0 28.6756219,32.79516 74.9253019,27.05684"
     id="path430" />
  <path
     style="fill:#f3f3f3;fill-opacity:1;fill-rule:nonzero;stroke:none;stroke-width:9.46402"
     d="m -528.34826,615.88574 c -1.14702,0 -2.33501,0 -3.523,0 -0.12291,0 -0.28671,0 -0.40962,0 -2.25308,0 -7.1689,-0.0666 -7.1689,-0.0666 0,0 -4.99776,0.0666 -7.25084,0.0666 -0.16392,0 -0.32772,0 -0.45063,0 -1.18799,0 -2.33501,0 -3.523,0 -100.77433,0 -195.1581,-34.42991 -195.1581,-34.42991 -3.72783,0.4337 -7.33277,0.66721 -10.8148,0.66721 -39.85912,0 -64.1105,-27.72407 -64.1105,-27.72407 l 12.61728,-78.63496 c 8.02917,-71.29527 88.52573,-83.5726 104.62505,-87.67617 16.05835,-4.10355 74.43372,-17.21495 82.4629,-31.96109 2.7037,-4.90426 2.90852,-14.2457 2.0073,-24.45457 -22.98146,-22.45284 -38.05665,-50.84416 -46.08583,-68.9599 -3.40011,1.93502 -6.22672,2.63563 -8.4798,2.63563 -5.69416,0 -8.1111,-4.27038 -8.1111,-4.27038 -37.2783,-44.23843 -14.13299,-62.25408 -9.09427,-65.52357 1.10606,-0.734 2.25309,-1.03424 3.31818,-1.03424 3.68687,0 6.71829,3.46968 6.71829,3.46968 l 0.53254,1.26778 C -687.3341,81.187987 -563.25058,73.21439 -549.03567,72.680598 c -0.24578,0.06672 1.188,0.133448 9.58586,0.33363 8.27496,-0.200182 9.7497,-0.266906 9.54489,-0.33363 14.50165,0.567154 138.13457,8.674199 131.04759,126.576612 l 0.49153,-1.26778 c 0,0 3.07239,-3.46967 6.75926,-3.46967 1.06509,0 2.21212,0.30028 3.31818,1.03423 4.99775,3.2695 28.18403,21.28515 -9.0533,65.52358 0,0 -2.45791,4.27037 -8.15208,4.27037 -2.25308,0 -5.07968,-0.7006 -8.47979,-2.63563 -8.07014,18.11575 -23.10436,46.50708 -46.08582,68.95991 -0.90126,10.20886 -0.69645,19.55031 2.00729,24.45456 8.02917,14.74615 66.36358,27.85754 82.46291,31.96109 16.0993,4.10357 96.59588,16.3809 104.62504,87.67617 l 12.61728,78.63496 c 0,0 -24.16944,27.72407 -64.02857,27.72407 -3.523,0 -7.12793,-0.2335 -10.85577,-0.6672 0,0 -94.3428,34.4299 -195.11713,34.4299"
     id="path154-3" />
  <path
     style="fill:#ffffff;fill-opacity:1;fill-rule:nonzero;stroke:none;stroke-width:9.46402"
     d="m -745.83237,555.83358 c 0,0 96.59588,35.26396 198.6811,34.42991 1.92536,0 7.70146,-0.0666 7.70146,-0.0666 0,0 5.69415,0.0666 7.57855,0.0666 102.08522,0.83409 198.64013,-34.42991 198.64013,-34.42991 46.24969,5.73831 74.88434,-27.05683 74.88434,-27.05683 l -12.61727,-78.63496 c -8.02917,-71.29527 -88.52574,-83.5726 -104.62505,-87.67617 -16.05835,-4.10355 -74.43373,-17.21494 -82.4629,-31.96109 -2.70371,-4.90426 -2.90853,-14.2457 -2.0073,-24.45457 22.98147,-22.45284 38.01569,-50.84416 46.08582,-68.9599 11.83895,6.73919 16.63187,-1.63475 16.63187,-1.63475 37.23734,-44.23842 14.05105,-62.25407 9.0533,-65.52358 -5.03872,-3.26951 -10.07744,2.43545 -10.07744,2.43545 l -0.49152,1.26778 C -391.77035,55.732544 -515.3623,47.625499 -529.90492,47.058346 c 0.20481,0.06672 -1.26993,0.133447 -9.54489,0.333619 -8.39786,-0.200172 -9.83164,-0.266896 -9.58586,-0.333619 -14.21491,0.533791 -138.29843,8.507388 -131.21145,126.576614 l -0.53255,-1.26778 c 0,0 -4.99776,-5.70496 -10.03647,-2.43545 -5.03872,3.26951 -28.18404,21.28516 9.09427,65.52358 0,0 4.75196,8.37394 16.5909,1.63475 8.02917,18.11574 23.10436,46.50706 46.08583,68.9599 0.90125,10.20887 0.69644,19.55031 -2.0073,24.45457 -8.02919,14.74615 -66.40455,27.85754 -82.4629,31.96109 -16.09932,4.10357 -96.59588,16.3809 -104.62506,87.67617 l -12.61727,78.63496 c 0,0 28.67562,32.79514 74.9253,27.05683"
     id="path292-6" />
  <path
     style="fill:#7a7a7a;fill-opacity:1;fill-rule:nonzero;stroke:none;stroke-width:9.46402"
     d="m -745.83237,530.21132 c 0,0 96.59588,35.26396 198.6811,34.42991 1.92536,0 7.70146,-0.0666 7.70146,-0.0666 0,0 5.69415,0.0666 7.57855,0.0666 102.08522,0.83408 198.64013,-34.42991 198.64013,-34.42991 46.24969,5.73832 74.88434,-27.05683 74.88434,-27.05683 l -12.61727,-78.63497 c -8.02917,-71.29526 -88.52574,-83.57259 -104.62505,-87.67615 -16.05835,-4.10356 -74.43373,-17.21495 -82.4629,-31.96109 -2.70371,-4.90427 -2.90853,-14.24572 -2.0073,-24.45458 22.98147,-22.45283 38.01569,-50.84416 46.08582,-68.95989 11.83895,6.73919 16.63187,-1.63475 16.63187,-1.63475 37.23734,-44.23844 14.05105,-62.25408 9.0533,-65.52358 -5.03872,-3.26951 -10.07744,2.43545 -10.07744,2.43545 l -0.49152,1.26776 C -391.77035,30.110292 -515.3623,22.003247 -529.90492,21.436083 c 0.20481,0.06672 -1.26993,0.133458 -9.54489,0.33363 -8.39786,-0.200172 -9.83164,-0.266896 -9.58586,-0.33363 -14.21491,0.533802 -138.29843,8.507399 -131.21145,126.576607 l -0.53255,-1.26776 c 0,0 -4.99776,-5.70496 -10.03647,-2.43545 -5.03872,3.2695 -28.18404,21.28514 9.09427,65.52358 0,0 4.75196,8.37394 16.5909,1.63475 8.02917,18.11573 23.10436,46.50706 46.08583,68.95989 0.90125,10.20886 0.69644,19.55031 -2.0073,24.45458 -8.02919,14.74614 -66.40455,27.85753 -82.4629,31.96109 -16.09932,4.10356 -96.59588,16.38089 -104.62506,87.67615 l -12.61727,78.63497 c 0,0 28.67562,32.79515 74.9253,27.05683"
     id="path430-7" />
</svg>
