<svg id="visual" viewBox="0 0 960 540" width="960" height="540" xmlns="http://www.w3.org/2000/svg" xmlns:xlink="http://www.w3.org/1999/xlink" version="1.1"><path d="M0 377L14.5 383C29 389 58 401 87.2 402.2C116.3 403.3 145.7 393.7 174.8 397C204 400.3 233 416.7 262 423.7C291 430.7 320 428.3 349 427.7C378 427 407 428 436.2 434.7C465.3 441.3 494.7 453.7 523.8 452.3C553 451 582 436 611 422.3C640 408.7 669 396.3 698 392.5C727 388.7 756 393.3 785.2 395.7C814.3 398 843.7 398 872.8 411.5C902 425 931 452 945.5 465.5L960 479L960 0L945.5 0C931 0 902 0 872.8 0C843.7 0 814.3 0 785.2 0C756 0 727 0 698 0C669 0 640 0 611 0C582 0 553 0 523.8 0C494.7 0 465.3 0 436.2 0C407 0 378 0 349 0C320 0 291 0 262 0C233 0 204 0 174.8 0C145.7 0 116.3 0 87.2 0C58 0 29 0 14.5 0L0 0Z" fill="#c33764"></path><path d="M0 400L14.5 401.5C29 403 58 406 87.2 393C116.3 380 145.7 351 174.8 349.8C204 348.7 233 375.3 262 382.8C291 390.3 320 378.7 349 377.5C378 376.3 407 385.7 436.2 395.2C465.3 404.7 494.7 414.3 523.8 416.3C553 418.3 582 412.7 611 403.2C640 393.7 669 380.3 698 380.3C727 380.3 756 393.7 785.2 389.3C814.3 385 843.7 363 872.8 353.7C902 344.3 931 347.7 945.5 349.3L960 351L960 0L945.5 0C931 0 902 0 872.8 0C843.7 0 814.3 0 785.2 0C756 0 727 0 698 0C669 0 640 0 611 0C582 0 553 0 523.8 0C494.7 0 465.3 0 436.2 0C407 0 378 0 349 0C320 0 291 0 262 0C233 0 204 0 174.8 0C145.7 0 116.3 0 87.2 0C58 0 29 0 14.5 0L0 0Z" fill="#b52f6a"></path><path d="M0 339L14.5 332.5C29 326 58 313 87.2 305.5C116.3 298 145.7 296 174.8 307.8C204 319.7 233 345.3 262 352.7C291 360 320 349 349 340.5C378 332 407 326 436.2 316.8C465.3 307.7 494.7 295.3 523.8 300.2C553 305 582 327 611 327.2C640 327.3 669 305.7 698 306.8C727 308 756 332 785.2 341.2C814.3 350.3 843.7 344.7 872.8 334.3C902 324 931 309 945.5 301.5L960 294L960 0L945.5 0C931 0 902 0 872.8 0C843.7 0 814.3 0 785.2 0C756 0 727 0 698 0C669 0 640 0 611 0C582 0 553 0 523.8 0C494.7 0 465.3 0 436.2 0C407 0 378 0 349 0C320 0 291 0 262 0C233 0 204 0 174.8 0C145.7 0 116.3 0 87.2 0C58 0 29 0 14.5 0L0 0Z" fill="#a62a6f"></path><path d="M0 292L14.5 292.7C29 293.3 58 294.7 87.2 290.5C116.3 286.3 145.7 276.7 174.8 281.5C204 286.3 233 305.7 262 312.7C291 319.7 320 314.3 349 304.5C378 294.7 407 280.3 436.2 275.3C465.3 270.3 494.7 274.7 523.8 273.7C553 272.7 582 266.3 611 269.2C640 272 669 284 698 284.3C727 284.7 756 273.3 785.2 267.8C814.3 262.3 843.7 262.7 872.8 266.2C902 269.7 931 276.3 945.5 279.7L960 283L960 0L945.5 0C931 0 902 0 872.8 0C843.7 0 814.3 0 785.2 0C756 0 727 0 698 0C669 0 640 0 611 0C582 0 553 0 523.8 0C494.7 0 465.3 0 436.2 0C407 0 378 0 349 0C320 0 291 0 262 0C233 0 204 0 174.8 0C145.7 0 116.3 0 87.2 0C58 0 29 0 14.5 0L0 0Z" fill="#952772"></path><path d="M0 263L14.5 258.5C29 254 58 245 87.2 243.7C116.3 242.3 145.7 248.7 174.8 250.7C204 252.7 233 250.3 262 248C291 245.7 320 243.3 349 243.3C378 243.3 407 245.7 436.2 245.3C465.3 245 494.7 242 523.8 235C553 228 582 217 611 212.5C640 208 669 210 698 208C727 206 756 200 785.2 205C814.3 210 843.7 226 872.8 227.7C902 229.3 931 216.7 945.5 210.3L960 204L960 0L945.5 0C931 0 902 0 872.8 0C843.7 0 814.3 0 785.2 0C756 0 727 0 698 0C669 0 640 0 611 0C582 0 553 0 523.8 0C494.7 0 465.3 0 436.2 0C407 0 378 0 349 0C320 0 291 0 262 0C233 0 204 0 174.8 0C145.7 0 116.3 0 87.2 0C58 0 29 0 14.5 0L0 0Z" fill="#822675"></path><path d="M0 188L14.5 194.7C29 201.3 58 214.7 87.2 212.3C116.3 210 145.7 192 174.8 191.2C204 190.3 233 206.7 262 213C291 219.3 320 215.7 349 214.7C378 213.7 407 215.3 436.2 216C465.3 216.7 494.7 216.3 523.8 211.5C553 206.7 582 197.3 611 195.7C640 194 669 200 698 195.3C727 190.7 756 175.3 785.2 174.7C814.3 174 843.7 188 872.8 197.8C902 207.7 931 213.3 945.5 216.2L960 219L960 0L945.5 0C931 0 902 0 872.8 0C843.7 0 814.3 0 785.2 0C756 0 727 0 698 0C669 0 640 0 611 0C582 0 553 0 523.8 0C494.7 0 465.3 0 436.2 0C407 0 378 0 349 0C320 0 291 0 262 0C233 0 204 0 174.8 0C145.7 0 116.3 0 87.2 0C58 0 29 0 14.5 0L0 0Z" fill="#6e2676"></path><path d="M0 116L14.5 121.7C29 127.3 58 138.7 87.2 139.8C116.3 141 145.7 132 174.8 137C204 142 233 161 262 160C291 159 320 138 349 133C378 128 407 139 436.2 144.5C465.3 150 494.7 150 523.8 144.5C553 139 582 128 611 124C640 120 669 123 698 124.3C727 125.7 756 125.3 785.2 127.2C814.3 129 843.7 133 872.8 138.2C902 143.3 931 149.7 945.5 152.8L960 156L960 0L945.5 0C931 0 902 0 872.8 0C843.7 0 814.3 0 785.2 0C756 0 727 0 698 0C669 0 640 0 611 0C582 0 553 0 523.8 0C494.7 0 465.3 0 436.2 0C407 0 378 0 349 0C320 0 291 0 262 0C233 0 204 0 174.8 0C145.7 0 116.3 0 87.2 0C58 0 29 0 14.5 0L0 0Z" fill="#572676"></path><path d="M0 124L14.5 122.8C29 121.7 58 119.3 87.2 114.8C116.3 110.3 145.7 103.7 174.8 103.5C204 103.3 233 109.7 262 114C291 118.3 320 120.7 349 120C378 119.3 407 115.7 436.2 112.5C465.3 109.3 494.7 106.7 523.8 107.7C553 108.7 582 113.3 611 108.3C640 103.3 669 88.7 698 84.2C727 79.7 756 85.3 785.2 84.7C814.3 84 843.7 77 872.8 83.5C902 90 931 110 945.5 120L960 130L960 0L945.5 0C931 0 902 0 872.8 0C843.7 0 814.3 0 785.2 0C756 0 727 0 698 0C669 0 640 0 611 0C582 0 553 0 523.8 0C494.7 0 465.3 0 436.2 0C407 0 378 0 349 0C320 0 291 0 262 0C233 0 204 0 174.8 0C145.7 0 116.3 0 87.2 0C58 0 29 0 14.5 0L0 0Z" fill="#3e2774"></path><path d="M0 37L14.5 39.2C29 41.3 58 45.7 87.2 47.5C116.3 49.3 145.7 48.7 174.8 50.7C204 52.7 233 57.3 262 53.8C291 50.3 320 38.7 349 36.3C378 34 407 41 436.2 41.5C465.3 42 494.7 36 523.8 40.2C553 44.3 582 58.7 611 62.8C640 67 669 61 698 55.7C727 50.3 756 45.7 785.2 49.3C814.3 53 843.7 65 872.8 65.8C902 66.7 931 56.3 945.5 51.2L960 46L960 0L945.5 0C931 0 902 0 872.8 0C843.7 0 814.3 0 785.2 0C756 0 727 0 698 0C669 0 640 0 611 0C582 0 553 0 523.8 0C494.7 0 465.3 0 436.2 0C407 0 378 0 349 0C320 0 291 0 262 0C233 0 204 0 174.8 0C145.7 0 116.3 0 87.2 0C58 0 29 0 14.5 0L0 0Z" fill="#1d2671"></path></svg>